<?xml version="1.0" encoding="UTF-8"?><svg id="Layer_2" xmlns="http://www.w3.org/2000/svg" viewBox="0 0 148.6659 129.8031"><g id="Components"><g id="a3c576c7-bb5e-47be-8c40-0c5dd8d999b9_19"><path d="m24.4486,46.4152c-.1416.2295-.3555.374-.5977.4062-.3867.0576-.7227-.1641-1.0117-.374-5.752-4.1826-9.8135-10.5869-11.1416-17.5752-.0303-.1504-.0566-.3213-.0869-.502-.1328-.8174-.2969-1.8369-.751-2.3477-.208-.2344-.4033-.3262-.5801-.2764-.5938.1514-1.0771,1.6035-1.249,2.3506-.8887,3.8457-1.6738,7.1865-2.4551,10.5264-.7949,3.3896-1.0938,5.8809-1.9971,9.7861-.0527.2266-.1328.5723-.3984.7656-.1172.0859-.2578.1299-.4062.1299-.0684,0-.1406-.0098-.2119-.0293-.2861-.0771-.5479-.2988-.667-.5693-.1992-.4561-.1006-.9795-.0293-1.3633,1.1162-5.9883,1.4375-9.3008,2.8057-15.6768.04-.1895.0859-.4014.0439-.5869-.0459-.1982-.1738-.3398-.3789-.4277-.377-.1543-.9482-.0889-1.3594.1621-.1846.1133-.3672.251-.5459.3818-.4717.3535-.959.7178-1.5684.7363-.0137.001-.0293.001-.0449.001-.9795,0-1.6943-.9453-1.7988-1.8379-.1084-.9219.2686-1.8311.6523-2.5986.6787-1.3574,1.5117-2.6396,2.4746-3.8105.4141-.5029.8594-.9932,1.2891-1.4697.8184-.9053,1.625-1.8691,2.3174-2.8877,2.2285-3.2773,2.627-12.2666,2.2725-17.2783-.0488-.6709-.0293-1.6016.6738-1.9443.6523-.3242,1.4033.1465,1.8564.7549,1.1826,1.5762,1.2266,3.5928,1.1328,5.1738-.0342.6143-1.4258,8.7432-1.7334,11.4463-.083.7314-.1172,1.748.5361,2.1582.46.291,1.0752.1338,1.4805-.1504.4658-.3262.792-.8408,1.0801-1.2949l6.9355-10.8926c.9355-1.4707,1.7949-2.1592,2.5898-2.0742.3818.0488.6465.209.7832.4824.3506.6963-.2539,1.9092-.7383,2.7598-1.8447,3.2432-3.8945,6.4111-6.0957,9.4199l-.207.2852c-1.0723,1.4629-2.1826,2.9746-2.6494,4.7188-.5947,2.2168-.084,4.6113.4922,6.6621,1.7812,6.3271,4.6055,11.2305,8.3965,14.5762l.0479.04c.3936.3467.8008.7061.9688,1.2188.1055.3301.0576.7334-.126,1.0254Z" style="fill:#c2cabc;"/><path d="m40.0189,41.3644c.1006.3467.5352.5439.9346.6729,1.0479.333,2.1768.4893,3.2988.4551,1.1582-.0352,3.4189-1.1465,3.2881.5117-.3359.9697-3.0234,1.0088-3.8672,1.0527-1.7988.0918-3.5537-.0889-5.2021-.7744-.3896-.1631-.7773-.3506-1.2021-.4072-.7754-.1025-1.001.3037-1.6455.6992-1.5986.9795-3.8623,1.6387-5.8633,1.2529-4.2939-.8301-3.5508-4.4707-2.8818-6.6641.6484-2.1309,1.7969-4.1221,3.0332-6.0273.7861-1.208,1.667-2.4531,3.082-3.1641,1.4141-.71,3.5098-.665,4.4473.457.71.8506.5215,1.9678.085,2.8896-1.5703,3.3027-4.167,5.5479-7.8174,7.0518-1.4688.6045-1.125,2.2783.0938,2.9346.5957.3203,1.3213.4131,2.0146.3516,1.2061-.1074,2.4863-.5137,3.4951-1.1094,1.2773-.7529,1.7393-1.8193,2.1748-3.0693.6602-1.9023,1.6807-3.7021,2.9814-5.3223,1.1572-1.4424,2.8379-3.4639,4.7734-4.1025,2.043-.6748,3.6221,1.04,3.4648,2.7646-.1152,1.2695-.8486,4.332-7.9824,8.4404-.0518.0293-.0938.0703-.1406.1074-.3486.2783-.6729.624-.5645.999Zm-8.417-5.3027c.7832-.6514,1.4863-1.3799,2.0957-2.166.3115-.4014.5977-.8174.8584-1.2471.1914-.3174.5234-.7197.4775-1.0977-.0918-.7744-1.3369-.1133-1.6377.1543-.7861.6992-1.4746,1.4873-2.0361,2.3408-.3643.5547-.7754,1.1172-.998,1.7324-.0674.1875-.127.6064-.0234.7773.2275.3779,1.0762-.3389,1.2637-.4941Zm9.2754.3613c-.0918.1885-.1816.3906-.1611.5957.083.9111,1.2588.1104,1.6035-.1709,1.1943-.9736,2.1895-1.7803,3.168-2.9229.332-.3887.8174-1.0811.9326-1.5762.0693-.2988.083-.7588-.2969-.9004-.3115-.1152-.7217.125-.9688.2656-.6689.3809-1.2461.8955-1.793,1.4033-.8672.8037-1.5996,1.7207-2.167,2.7119-.1123.1953-.2187.3936-.3174.5938Z" style="fill:#c2cabc;"/><path d="m65.4505,32.6691c.0088.4102-.0049.7607-.0352,1.0059-.4463,3.6416-2.3389,7.1738-5.3945,9.2031-1.1172.7432-2.3955,1.3008-3.2617,2.3242-.9395,1.1094-1.2578,2.5996-1.5439,4.0244-.7588,3.7666-1.5186,7.5322-2.2783,11.2988-.1348.665-.3457,1.4287-.9707,1.6943-.708.2998-1.5381-.2891-1.7812-1.0176-.2441-.7285-.0742-1.5244.0986-2.2725.6201-2.6992,1.2393-5.3975,1.8594-8.0967.2637-1.1484.5205-2.3975.0342-3.4707-.2402-.5303-.6504-.9941-.7275-1.5664-.0645-.4658.1045-.9277.2627-1.3701,1.2891-3.6025,2.1533-7.3564,2.5664-11.1582.0684-.6211.1543-1.3018.6182-1.7178.6689-.5967,1.9395-.125,2.0566.7646.0635.4893-.1631.9609-.3018,1.4326-.0752.2627-.2598,1.3877.2939,1.3359.7705-.0713,1.3955-1.4297,1.6973-2.0078.5967-1.1465,1.1934-2.2939,1.791-3.4395.417-.8008.8838-1.6523,1.6934-2.0488,2.5303-1.2422,3.2705,2.835,3.3232,5.082Zm-2.4609.1973c.002-1.124-.2012-2.1582-.9844-1.71-.2168.125-.3477.3516-.4697.5703-1.2783,2.2979-2.4619,4.6475-3.5449,7.043-.1934.4297-.3877.916-.2295,1.3604.0781.2168.2686.415.5.4102.127-.0029.2422-.0654.3516-.1289,2.002-1.166,3.5264-3.127,4.1602-5.3545.0693-.2373.2158-1.2451.2168-2.1904Z" style="fill:#c2cabc;"/><path d="m97.9369,41.1945c.1797.417.4482.834.8262.9785.6299.2393,1.1865-.3643,1.4551-.8594,2.3213-4.2871,3.4971-8.7471,5.04-13.3721.0928-.2764.1982-.5713.4395-.7373,1.2793-.8906.9482,2.084.8594,2.5859-.4971,2.7764-1.2656,5.4795-2.2441,8.127-.7334,1.9863-1.5625,3.9307-2.6592,5.748-.3779.625-.7881,1.2441-1.3467,1.7178-.5752.4873-1.3848.8496-2.1494.6826-2.7432-.5938-2.9824-6.5273-2.9756-8.1953,0-.1357-.1758-.1807-.249-.0684-1.0811,1.6562-2.1816,3.3076-3.375,4.8838-.5303.7002-1.1973,1.5361-2.0693,1.7959-1.5303.4561-1.9707-1.2354-2.2666-2.3291-.2578-.9482-.3779-1.9307-.4561-2.9102-.2393-3,.541-6.6465,1.4736-8.7637.1221-.2754.3252-.5176.5742-.6885.248-.1699.5908-.2334.8516-.084.3643.207.4248.6982.418,1.1162-.0449,2.9189-1.2842,5.8213-.7314,8.6875.0879.4531.415,1.0107.8525.8672.1543-.0518.2666-.1826.3691-.3105,1.124-1.3926,2.1621-2.8555,3.1045-4.3779.4658-.751.9062-1.5156,1.3252-2.2939.3418-.6377,1.8691-2.8916,2.3203-1.1738.2627.999.0205,2.0723-.0029,3.084-.042,1.875-.1094,3.5303.4268,5.3564.0469.1611.1094.3477.1895.5332Z" style="fill:#c2cabc;"/><path d="m137.0882,48.4835c.04.3848.0811,1.3223-.3174,1.5664-.5625.3418-1.3594-.7598-1.6211-1.1504-.4014-.6006-.6543-1.2861-.8164-1.9834-.3203-1.3779-.3037-2.8145-.2051-4.21.0264-.3721.2109-2.8848-.7363-2.126-1.2158.9756-2.207,2.1982-3.4336,3.1494-.5703.458-1.1777.9131-1.8984,1.0576-1.3818.2764-2.7939-.7168-3.4443-1.9844-.5615-1.0928-.6797-2.3379-.6924-3.5664-.0029-.1953-.001-.3906,0-.5859.0068-.5986-.3799-1.4678-.8965-1.1738-.0928.0537-.1621.1396-.2275.2227-1.9873,2.5156-4.2051,4.8477-6.6182,6.959-1.4131,1.2354-3.252,2.4688-5.0557,1.8545-1.042-.3545-1.8203-1.292-2.1963-2.3271-.3779-1.0342-.3994-2.1592-.3066-3.248.2139-2.5352,1.0264-5.0088,2.3555-7.1611.8105-1.3135,2.2686-2.6426,3.7236-2.0664.7646.3037,1.2686,1.0889,1.4131,1.8955.1436.8066-.0176,1.6338-.2588,2.4102-.4697,1.5205-1.2734,2.9785-2.5332,3.9414-.75.5732-1.6572.9736-2.2295,1.7236-.458.6016-.6279,1.6709-.0381,2.2666.6553.6602,1.9258.3682,2.6592.0234,1.0078-.4756,1.8857-1.3086,2.7168-2.0332.8613-.752,1.6787-1.5537,2.4434-2.4043,1.4922-1.6592,2.7793-3.499,3.8398-5.4658,1.5-2.7891,2.2871-5.9062,3.0605-8.9873l2.7744-11.0527c.5078-2.0234,1.0186-4.0566,1.8301-5.9746.1377-.3262.2949-.6631.5811-.8682.4766-.3457,1.1143-.1572,1.543.1943.6094.502.4795,1.0537.3564,1.7539-.2695,1.5234-.877,2.9531-1.3076,4.4316-.6123,2.1104-1.2217,4.2217-1.8027,6.3408-1.7803,6.4834-3.8291,13.3975-3.7705,20.2109.0078,1.0176.4385,2.3896,1.4482,2.2881.3613-.0361.625-.3271.9346-.5127,8.8389-5.3145,12.6221-28.9609,15.1338-35.0859.2578-.627.4922-1.3721,1.2402-1.1846.6211.1562,1.0059,1.1143,1.0762,1.6602.0977.7607-8.2373,27.1123-8.9189,30.5576-.5771,2.9121-.752,5.8877-.1797,8.835.1182.6064.3076,1.1973.375,1.8096Zm-25.4795-10.1924c.2734.209.9971-.5645,1.2471-.9941.4268-.7373.8193-1.5703,1-2.4102.1875-.8604-.585-.4717-.9521-.043-.6543.7627-1.2158,1.7646-1.3721,2.7764-.0605.3916-.0205.5928.0771.6709Z" style="fill:#c2cabc;"/><path d="m46.9124,94.9113c-3.3604,4.582-8.3984,7.957-13.1816,10.8877-3.6553,2.2393-7.7441,4.0381-12.0898,4.165-1.2227.0352-2.541-.0703-3.415-1.0215-1.7051-1.8467-1.8379-4.3174-.3467-6.4453,1.208-1.7246,2.8125-3.0996,4.9033-4.2061.4355-.2217.9268-.0186,1.1475.1406.1816.1377.2812.333.3018.583.0049.0576.0361.5703-.2607.8828-.2412.2549-.4912.5039-.7412.75l-.083.083c-.21.208-.4355.4238-.665.6406-.9033.8613-1.9287,1.8359-2.5098,2.8418-.4727.8184-.5381,1.7549-.165,2.3262.2881.4463.8115.6367,1.498.5537,3.0264-.3193,6.0098-1.3115,8.8701-2.9492,3.208-1.835,6.8945-4.0303,10.0566-6.8623,1.8906-1.6953,3.5781-3.5107,5.251-5.4199.3418-.3887.7031-.834.6797-1.3516-.0156-.3496-.2139-.6719-.4707-.9092-.4941-.458-1.1719-.7314-1.8154-.8896-4.3838-1.0752-8.7285-.1221-12.4014.9521-1.3018.3809-2.6035.7549-3.9082,1.1279l-1.7275.4951c-1.209.3496-2.4189.6963-3.627,1.0527-1.0234.3047-2.2314.5205-3.4238-.1396-1.0068-.5576-1.6211-1.252-1.8252-2.0684-.1855-.751-.0186-1.5684.4951-2.4277,4.2949-7.1553,8.7666-12.9785,13.6699-17.8027,2.0234-1.9854,4.0352-3.8848,6.4043-5.2969,1.2129-.7188,2.4307-1.292,3.6191-1.7012.9707-.332,2.0078-.3018,2.709-.2236,1.3389.1592,2.1875.6191,2.5918,1.4062.4102.7939.3125,1.835-.2969,3.1807-.0049.0107-.5107,1.0957-1.1416,1.3359-.1846.0723-.3584.0654-.5234-.0078-.9287-.417-.8369-1.2334-.5635-2.0693.1084-.3291.1963-.6943.0693-1.0156-.4707-1.1953-3.8311.6689-4.5166,1.1123-1.6094,1.043-3.6895,2.46-5.4941,4.1641-4.8965,4.624-9.2197,10.0645-12.8467,16.167-.2764.4629-.5996.917-.7969,1.4248-.2148.5537-.3311.7686.1846.9092,1.3877.3799,3.6445-.6523,4.9785-1.0156,1.9287-.5234,3.8535-1.0674,5.7998-1.5273,3.8203-.9023,7.7656-1.4697,11.6846-.9307,1.0889.1504,2.2568.542,3.5713,1.1973,1.0342.5186,1.7813,1.373,2.1035,2.4033.6035,1.9443-.627,3.9658-1.752,5.498Z" style="fill:#c2cabc;"/><path d="m66.0648,96.716c-3.0752,9.8018-6.207,17.8818-9.3027,27.6777-.0273.0791-.0518.1631-.043.248.0645.5391,1.0674.0918,1.416.5078.1953.2324.0537.584-.0938.8516-.5029.9111-1.0059,1.8223-1.5098,2.7334-.2217.4023-.4785.8359-.9062,1.0029-.6387.249-1.375-.2461-1.627-.8857-.25-.6377-.1436-1.3564-.0088-2.0283.2373-1.1816.5508-2.3486.8701-3.5117,2.1719-7.9209,4.1504-13.0967,6.8555-20.8506.1924-.5537.9141-2.5977-.1045-2.3574-.7686.1807-1.7959,1.4443-2.3672,1.9727-1.4785,1.3623-2.8916,2.8223-4.5898,3.918-.8896.5732-1.8975,1.0518-2.957,1.0264-1.0596-.0264-2.1611-.6826-2.4082-1.7119-.1797-.7471.1016-1.5195.3984-2.2275.8271-1.9717,2.1396-4.6533,3.123-6.5527.3076-.5937.7451-1.2705,1.4131-1.2754.6494-.0039,1.1211.6953,1.1191,1.3457-.001.6504-.3398,1.2441-.668,1.8057-.4473.7637-2.5791,4.585-2.5791,5.2881,0,1.5176,4.2725-1.9814,4.71-2.3975,2.0908-1.9814,4.6719-4.9229,6.7646-6.9043.4629-.4404,1.0225-.9131,1.6562-.8281.6182.084,1.0518.7021,1.1328,1.3203.0791.627-.1074,1.2412-.2939,1.833Z" style="fill:#c2cabc;"/><path d="m82.9427,113.4572c.2109.6172.7383,1.3975.0273,1.8467-.5479.3477-1.292.1943-1.7363-.25-.3496-.3477-.5449-.8223-.6904-1.2939-.8174-2.6641-.5098-5.7314.1064-8.4043.2393-1.0381.4863-2.1064.7363-3.4785.0811-.4424.1729-.9473.1182-1.4346-.0557-.5068-.3574-1.1494-.7002-1.2627-.1572-.0547-.3213.0107-.4873.1846-.75.7842-1.0781,2.1455-1.625,3.0889-.5811,1.002-1.2646,1.957-2.0801,2.7832-1.1348,1.1494-2.4473,2.1885-4.1289,2.2646-.6582.0312-1.3379-.123-1.8633-.5186-.3926-.2959-.6797-.7109-.873-1.1611-.8281-1.9316.292-4.7793,1.416-6.4219,1.0391-1.5186,2.5986-2.4766,4.333-3.0186,2.1787-.6836,3.3193-1.9521,4.6914-3.6729,2.4551-3.0742,3.9746-5.2275,5.4639-8.4688,1.5068-3.2754,2.542-7.1543,3.2988-9.9863.3691-1.3809.6592-2.4707.9053-3.1162.0811-.2139.1826-.459.3672-.6543.2324-.2471.5234-.3535.8486-.3018.5166.0811.9883.5439,1.1875.959.5684,1.1914.1533,2.5117-.3203,3.7637-.5078,1.3438-.9873,2.6992-1.46,4.0566-1.8359,5.292-3.5381,10.6367-5.0635,16.0264-.7588,2.6885-1.4873,5.3906-2.0781,8.1201-.3047,1.4111-.627,2.876-.8096,4.3496-.2529,2.0225-.2451,4.0596.416,6.001Zm-9.6758-9.9893c.1797.123.4639.0752.7422-.1348.7217-.5391,1.3193-1.4814,1.7588-2.2412.1826-.3135.2432-.6611.1543-.8838-.0801-.2002-.2549-.2627-.4404-.2627-.0957,0-.1943.0156-.2842.0391-.3174.0791-.5771.3027-.7676.4873-.6133.5957-1.0615,1.3516-1.2988,2.1855-.1064.374-.0566.6758.1357.8105Zm8.4131-6.917c.0322.0156.0664.0234.1074.0293.2686.0293.4873-.2041.6748-.6826l.6992-1.7881c.1045-.2666.2939-.8721.1748-1.1484-.2158-.501-.585-.0449-.7705.3154-.0098.0205-.9736,1.8965-.9736,1.8965-.127.2451-.2686.5244-.2588.8164.0059.2422.1553.4854.3467.5615Z" style="fill:#c2cabc;"/><path d="m103.846,94.131c-.0244.9082-.334,1.8174-.5303,2.7158-.4092,1.875-.7061,3.7715-.8887,5.6807-.0254.2617-.0449.54.0781.7715.2578.4902.9551.4893,1.4971.3809,1.0781-.2158,2.4258-1.3652,3.0146-2.2939.5674-.8955.3955-1.4834.4297-2.543.1074-3.3408,1.4297-6.6777,3.832-9.0029.4277-.415.9082-.8076,1.4814-.9736,1.4521-.4209,2.7598.4707,3.1523,1.6582,1.1904,3.6133-.9521,7.1211-3.4785,9.6074-1.0303,1.0137-1.8574,1.1553-1.9727,2.5947-.1064,1.3125.2266,2.6055,1.3232,3.4316,1.6572,1.249,3.6016.5547,4.9697-.7451.2881-.2734.5439-.5928.8926-.7832.502-.2734,1.2881-.1777.9473.5527-1.3271,2.8477-4.5693,4.8564-7.6543,3.4609-.8096-.3672-1.5195-.9492-2.0488-1.6621-.5469-.7373-.6719-1.5762-1.6416-1.8701-.2549-.0781-.5303-.0264-.7871.0439-.6484.1748-1.1084.5713-1.6914.8779-.6807.3574-1.4346.5811-2.2012.6455-.5254.0439-1.083.0078-1.5254-.2783-.5127-.3311-.7812-.9424-.8779-1.5459-.4512-2.8154.7998-5.5391.7725-8.3359-.0107-1.2266-.9961-1.2891-2.3037-.417-3.1689,2.1182-3.4473,6.4062-5.2578,9.46-.4209.709-1.0283,1.5078-1.8477,1.4248-.6748-.0684-1.1455-.7627-1.1982-1.4385-.0547-.6758.2031-1.334.458-1.9619.4932-1.2246.9873-2.4502,1.4824-3.6758.3975-.9844.7354-1.9912,1.1348-2.9736.3193-.7832.6123-2.124,1.3604-2.6289.7744-.5234,1.8262.2344,2.6748-.0293.8848-.2764,1.4189-1.0957,2.1143-1.6504.6484-.5176,1.6221-1.2031,2.4902-1.1582.6387.0332,1.1934.5098,1.4766,1.085.2549.5234.3369,1.0488.3232,1.5762Zm6.5918,4.0967c.0371.0088.0762.0137.1152.0117.1299-.0059.2471-.0762.3555-.1465,1.625-1.0654,2.7627-2.8477,3.0488-4.7695.0439-.2949.0674-.6064-.0332-.8877-.4512-1.2705-1.8027.1455-2.2295.6826-.9385,1.1846-1.5225,2.6445-1.6631,4.1484-.0186.209-.0293.4258.0488.6211.0605.1582.1963.2979.3574.3398Z" style="fill:#c2cabc;"/><path d="m137.3031,96.716c-3.0752,9.8018-6.207,17.8818-9.3027,27.6777-.0273.0791-.0518.1631-.043.248.0645.5391,1.0674.0918,1.416.5078.1953.2324.0537.584-.0938.8516-.5029.9111-1.0059,1.8223-1.5098,2.7334-.2217.4023-.4785.8359-.9062,1.0029-.6387.249-1.375-.2461-1.627-.8857-.25-.6377-.1436-1.3564-.0088-2.0283.2373-1.1816.5508-2.3486.8701-3.5117,2.1719-7.9209,4.1504-13.0967,6.8555-20.8506.1924-.5537.9141-2.5977-.1045-2.3574-.7686.1807-1.7959,1.4443-2.3672,1.9727-1.4785,1.3623-2.8916,2.8223-4.5898,3.918-.8896.5732-1.8975,1.0518-2.957,1.0264-1.0596-.0264-2.1611-.6826-2.4082-1.7119-.1797-.7471.1016-1.5195.3984-2.2275.8271-1.9717,2.1396-4.6533,3.123-6.5527.3076-.5937.7451-1.2705,1.4131-1.2754.6494-.0039,1.1211.6953,1.1191,1.3457-.001.6504-.3398,1.2441-.668,1.8057-.4473.7637-2.5791,4.585-2.5791,5.2881,0,1.5176,4.2725-1.9814,4.71-2.3975,2.0908-1.9814,4.6719-4.9229,6.7646-6.9043.4629-.4404,1.0225-.9131,1.6562-.8281.6182.084,1.0518.7021,1.1328,1.3203.0791.627-.1074,1.2412-.2939,1.833Z" style="fill:#c2cabc;"/><path d="m145.6107,46.467c.1015.2835.1339.577.2182.8619-.0285-.0962-.0298-.336-.0191-.0977.003.0671.0097.1339.0122.2011.0051.1343.0043.2689-.0021.4032-.0039.0808-.0123.161-.0176.2417-.0166.2518.0505-.2728.015-.0972-.0295.1458-.0521.2921-.0879.4368-.0325.1313-.0702.2614-.1128.3898-.0257.0773-.0552.1527-.0822.2295-.082.2334.1166-.2291.0339-.077-.1366.2511-.2516.5071-.4102.7469-.0373.0564-.0768.1112-.1153.1668-.1352.1952-.0269-.0112.0505-.0622-.1079.0711-.2031.2383-.2947.3329-.103.1062-.2106.2079-.3231.3041-.0387.0331-.0914.0641-.1243.1027.2036-.2384.1558-.1177.0287-.0305-.1109.0761-.2252.1472-.3426.2128-.1111.0621-.5975.2715-.1731.0997-.357.1445-.6476.3081-.8497.6534-.1783.3048-.2539.7539-.1433,1.0956.2147.6635,1.0108,1.2919,1.749.993,1.4957-.6055,2.7268-1.6964,3.4035-3.18.6652-1.4584.8784-3.1481.329-4.6832-.25-.6985-.9802-1.2418-1.749-.993-.6881.2227-1.2613.9992-.993,1.749h0Z" style="fill:#c2cabc;"/></g></g></svg>