<?xml version="1.0" encoding="UTF-8"?><svg id="Layer_2" xmlns="http://www.w3.org/2000/svg" viewBox="0 0 124.4261 129.2414"><g id="Components"><g id="_3acbe92a-d631-45d1-b8f8-5c3337f298ed_25"><path d="m10.1922,59.9142c-2.5308,2.0379-5.1818,3.5394-6.535,6.3997-.1493.3473-.4215,1.0658-.5458,1.4245-1.0163,2.4174-.7135,4.6526-.3109,7.4914.231,1.7195.5915,3.1454.7902,4.8879.0207,2.6962.0224,5.2329.8366,7.8325.7754,2.2311,1.5446,5.005,1.5016,7.4687-.0041.8035.1468,1.6472.1832,2.3886.3296,3.5667-1.6235,7.5869.59,10.5582-.0002,0,.8133,1.4542.8133,1.4542,3.061,7.0394,5.7612,13.2411,14.154,14.8445,6.1148,1.144,12.6489.7198,18.5776-1.2573,1.9371-.6154,3.9267-1.6557,6.3366-2.1465,2.3792-.4403,4.6193-.3213,6.7439-.37,3.4511-.0733,6.6137.4359,10.0746,1.0198,1.9032.4374,2.8582,1.5819,4.4705,1.9746,2.3607.5021,5.4811,1.4537,7.8058,1.8563,1.0994.0911,2.2905.3952,3.328.669,2.1984.6937,3.8755.4928,6.1828.4119,1.0647-.0523,2.1314.2874,3.217.2334,1.9931-.1288,4.3604-.6969,6.4511-.7108,3.2151-.1527,6.3145-.4876,9.3515-1.5833,0,.0001,3.162-.9278,3.162-.9278,5.213-1.5481,8.3542-6.0496,10.4722-10.8453,3.966-7.2633,6.2185-16.439,3.8368-24.5054-.6772-1.9581-1.7122-3.8139-2.7576-5.757-1.0844-1.9878-1.569-4.18-2.2111-6.3192-.5023-1.529-1.0802-3.3593-1.0826-5.0715-.0759-2.6895-.0148-5.4882-.2036-8.1132-.7135-6.4889.6563-13.087.4465-19.6354.0341-3.4643.0627-6.7784-.9674-10.0331-.4581-1.391-1.396-2.6275-2.2126-3.862-.756-1.0965-1.2765-2.6081-1.9879-3.3726-1.2665-1.7383-4.1812-2.5566-6.4153-3.4916-2.3918-.9919-5.0454-1.7851-7.5195-2.4723-2.1132-.5924-3.7491.1496-6.0569.1775-2.5042.1895-5.0304-1.4581-6.8453-2.8496-2.3233-1.4878-4.5046-3.2321-6.5546-5.0254-.795-.6937-1.5257-.9814-2.4941-1.4849-1.5066-.8751-2.4293-1.2322-4.362-1.8539-1.0842-.4921-1.8048-.8621-2.8629-1.1524-2.1154-.6131-4.0447-.7881-6.3344-1.2682-4.624-1.5995-8.8568-3.6115-13.7909-3.6995-7.4994-.2942-13.6889,7.2254-15.988,13.7427-.3419,1.501-.8773,3.0674-1.0576,4.5665-.1469,1.652-.7223,3.4331-1.1186,4.9285-.4007,1.4092-.5679,3.1516-.7304,4.6348-.7081,3.9292-1.4837,7.7533-3.0888,11.4214-.9612,2.0046-2.3769,3.8098-3.5656,5.5412-2.655,4.9935-7.5832,8.4129-11.7259,11.8803h0Zm-1.4213-1.7967c4.0573-3.4559,8.5264-6.5452,11.0208-11.2164.4937-.9309.9547-1.3307,1.4529-2.082.7088-1.0872,1.5024-2.2708,1.9954-3.3669,1.3957-3.3199,2.0959-7.0998,2.6953-10.6267.1652-1.6237.3026-3.4377.7228-5.0409.8471-2.7177.9644-5.3098,1.654-7.9923.7517-3.9837,2.9515-7.5881,5.4774-10.6288C36.8208,3.2375,41.5518.1431,46.6853.0002c4.2985-.0151,8.5784,1.0298,12.5283,2.6601,2.1296.9901,3.63,1.2404,5.9436,1.5918,2.1491.3363,4.6057,1.0273,6.5363,2.0186,2.1237.6346,4.9044,1.9499,6.9529,3.2629,2.3549,1.8934,4.5992,3.898,7.1397,5.4758,1.6393,1.1402,2.8994,2.2902,4.8808,2.2315,1.4452-.0042,3.3314-.5301,5.0117-.3928,3.473.5062,6.615,1.777,9.8508,3.0169,3.2414,1.2426,7.0368,2.6548,8.6704,6.0691,1.1599,2.5776,3.2727,4.7081,3.8806,7.547,1.6358,7.6581.5988,15.5708-.0807,23.2599-.2463,4.1505.1744,8.7478-.0569,12.9425-.3142,3.2621.8407,6.1252,1.6004,9.2789.9065,3.1792,2.8569,5.7067,3.8462,8.9571,2.2664,7.5976.5432,15.8525-2.5276,22.9545-3.0598,6.2539-5.6038,12.4611-12.9133,14.7648-1.2049.3732-3.5024,1.0564-4.6637,1.4767-2.676.8827-5.5131,1.1-8.2832,1.3142-2.7932.0235-5.4946,1.1345-8.3574.7187-1.5937-.2459-2.9858.0792-4.7309.0592-2.0677.0006-3.814-.7398-5.7496-1.0147-2.3353-.1558-5.0492-1.1036-7.3113-1.5182-1.0624-.2214-2.4506-.5088-3.386-1.0332-2.1134-1.3106-3.3756-1.4635-5.7635-1.6565-2.0598-.3525-4.2241-.5021-6.31-.4316-2.2188.0641-4.3657.0039-6.2754.3888-1.8742.3847-3.7951,1.3812-5.9881,2.1271-6.4355,2.1891-13.3675,2.7841-20.0769,1.4754-9.2175-1.867-12.7834-8.3061-16.0436-16.4059-.5382-.9638-1.1065-1.964-1.5667-3.0256-1.4215-3.3735.1586-6.7454-.0061-10.1181-.0169-.651-.1801-1.8732-.1644-2.4958.0545-2.5045-.5935-4.4363-1.3442-6.866-.8063-2.6558-.8899-5.5843-.8462-8.3351-.1596-1.5064-.5579-3.2656-.7353-4.7839-.3826-2.5227-.7041-5.8788.5113-8.5868.146-.4069.4652-1.2194.6406-1.6161,1.4537-3.1996,4.749-5.2408,7.2733-7.1936h0Z" style="fill:#663715;"/><path d="m42.9067,10.6608l-4.5739,3.0541c-.4395.1309-.8792.3216-1.1625.6807-.2846.347-.3978.7977-.4884,1.2504-.8464,2.6376-2.0444,5.2062-2.1349,8.0204-.0617,3.7114-.3914,7.4097-.3053,11.1248.1947,3.7531-.7301,7.4587-1.8619,11.0032-1.6122,4.4313-4.2955,8.3877-7.507,11.8016-1.3898,1.2421-2.8381,2.3737-4.1666,3.7114-2.0316,1.8513-4.3875,3.4625-5.9986,5.6592-2.3004,2.9383-2.1308,6.8162-2.1067,10.3757.0744,3.7512,2.7003,6.8243,3.2622,10.51.389,3.7426.7418,7.4591.4552,11.2391-.2266,1.8388-.6357,3.7067-.1186,5.3552.2858.8165.8045,1.5761,1.2907,2.3784,5.0517,9.4908,10.5238,11.3433,20.2668,6.7485,1.653-.8072,3.2524-1.8107,5.0709-2.3568,0,0,2.6957-.7146,2.6957-.7146,2.663-.9137,5.5452-.8008,8.2717-1.174,1.8344-.3375,3.7767-.3541,5.5948.1005,3.5768,1.0345,7.4149,1.4728,10.6055,3.4614,1.5828.9779,3.6067,1.1005,5.071,2.3115.6546.6047,1.6647.8561,2.4306,1.2075.8584.3525,1.7097.7064,2.5802.9561,3.5332.7356,7.3407,1.0664,10.9188.437,1.7601-.3328,3.5542-1.0744,5.4529-1.2153,3.5821-.5038,7.3564-1.041,10.398-3.099,4.5137-3.0412,7.3291-8.2888,8.0862-13.6247.3098-1.7763.048-3.5582-.1751-5.4169-.25-1.8175-.0915-3.6362-.9141-5.2977,0,0-2.46-4.969-2.46-4.969-2.0959-3.442-.7055-7.3615-1.8749-10.9397-.7462-1.7758-.9683-3.7793-.8553-5.6646.1188-1.6389.3347-3.935.5515-5.5802.2342-2.8616,1.2033-5.3631,1.0152-8.2078-.1899-4.5128.5621-9.4609-.727-13.6804-.7368-2.7213-3.0515-4.3569-4.9737-6.2276-.4838-.6358-1.5086-1.2039-2.0915-1.733-3.1826-2.7507-7.0354-4.1878-11.1391-4.8288-1.8097-.3469-3.5169-1.1456-5.3572-1.1183-1.4847-.0648-2.797-.0619-4.2833-.6618-.9316-.5315-1.4555-1.3933-1.9863-2.1337-.8718-1.0626-1.1991-2.4889-2.392-3.3038-1.7929-1.3886-3.472-3.1204-5.3012-4.4473-.7602-.5142-1.5901-.7766-2.5168-.9813-1.8186-.4886-3.504-1.2928-5.2975-1.7043-3.6145-1.1413-7.3967-.3312-11.0345-1.2663-1.8038-.5642-3.253-1.8785-5.0747-2.2362-1.7877-.254-3.8377-.2775-5.1389,1.1962h0Zm-.069-.0852c1.2988-1.4838,3.4133-1.5209,5.2362-1.2577,1.8779.3604,3.3447,1.6727,5.1025,2.202,3.5988.8857,7.4486.095,11.0431,1.1557,1.8413.3897,3.5531,1.1687,5.3322,1.6109,1.8912.2769,3.5183,1.4631,4.8632,2.7435,1.356,1.2538,3.0195,2.2581,4.2841,3.6428.9551,1.4393,1.8141,3.3317,3.2856,4.2408,1.5555.6497,3.6771.3645,5.3908.5854,2.7441.6533,5.4967,1.1111,8.1854,1.8965,3.705.8208,6.8948,3.3168,9.7051,5.7243,1.2975,1.3777,2.9918,2.3579,3.9938,4.0186,2.7095,3.804,1.9919,9.4693,2.0917,13.8616-.0298,1.7088.0993,3.9316-.1044,5.6358-.2692,1.9296-.7753,3.6408-.8993,5.481-.3276,3.6603-1.1946,7.4257.2533,10.7604,1.2299,3.4719-.2168,7.5338,1.7631,10.8116-.0002,0,2.4569,5.0271,2.4569,5.0271.857,1.735.7493,3.7663.9713,5.6108.2096,1.8137.4854,3.7693.1451,5.6758-1.0307,7.4282-6.2259,14.8123-13.8645,16.3819-3.699.8391-7.2766,1.0344-10.9533,2.0958-3.7379.6081-7.5264.2337-11.2036-.5587-.9137-.27-1.7776-.6384-2.6331-.997-.8195-.3375-1.8653-.7285-2.526-1.2839-1.4568-1.2073-3.4214-1.3131-5.0042-2.3183-1.5889-1.0218-3.2369-1.6571-5.0771-2.0418-3.5967-.8956-7.1309-2.443-10.8301-1.5855-2.7947.3608-5.5477.1994-8.2298,1.1399,0-.0002-2.6844.7273-2.6844.7273-1.7518.5349-3.33,1.533-5.0014,2.3629-9.896,4.73-15.6998,2.9254-21.0153-6.7468-.4813-.7763-1.0405-1.5546-1.3871-2.4925-.6249-1.9513-.1746-3.8774.0067-5.686.2314-3.5878-.1939-7.3773-.5692-10.9749-.6131-3.6974-3.266-6.7835-3.3264-10.6418-.0751-3.731-.1718-7.8885,2.314-10.9774,1.7288-2.3095,4.074-3.8695,6.1648-5.7422,1.3081-1.29,2.7823-2.4485,4.1787-3.6588,3.1857-3.2641,5.9092-7.1383,7.5441-11.4026,1.1799-3.4828,2.1533-7.0999,2.025-10.8108-.0272-3.7204.3944-7.4204.4685-11.1367.1011-2.8051,1.3324-5.4363,2.1907-8.0441.0931-.4484.2137-.9335.5276-1.3113.2647-.3942.8703-.6125,1.2011-.7042,0,0,4.5844-3.0193,4.5844-3.0193h0Z" style="fill:#663715;"/><path d="m44.4938,18.8616s-3.1508,5.5026-3.1508,5.5026c-.381.3854-.7823.7839-.9395,1.2906-.1633.4801-.1344,1.0041.0706,1.482.053.7909.1599,1.6898.0758,2.4906-.1609,1.6485-.1849,3.0797.2535,4.6986.4623,2.3843.7313,4.797.967,7.2097.9135,8.5246-5.7962,15.2065-11.388,20.7238-1.1948,1.1003-2.4496,2.1434-3.7876,3.0824-1.315.8696-2.6317,1.6211-3.4157,3.05-1.5748,2.6201-2.4689,5.8482-2.1461,8.9028.1327,1.5185.971,2.8805,1.4133,4.5364.3875,1.62.5872,3.1563,1.1753,4.6374.5283,1.5148,1.0696,3.0956,1.1833,4.7704.2198,3.3013-1.1425,6.3683-1.3063,9.591-.3005,2.3297.754,4.712,3.0457,5.5416,1.029.2894,2.1742,1.0991,3.2687.961,1.1468-.349,1.7037-1.4651,2.7338-2.1514,1.422-.9823,3.2118-.7877,4.8127-.8486,1.6385.0009,2.9873-.9968,4.5369-1.3722,1.5643-.4555,3.1663-.6983,4.748-.9708,3.1926-.5291,6.4611-.4102,9.6659-.2001,2.3749.0456,4.899-.131,7.2208.6023,4.0145.6301,7.6002,2.7612,11.0836,4.6644,6.8496,2.3124,14.3028,1.6488,21.3384.5377,1.5055-.3327,3.2788-.0965,4.7657-.3723,1.5067-.3763,2.9234-1.3806,4.5062-1.6935.7816-.1851,1.5414-.3601,2.1613-.7175,2.4414-1.6357,2.2264-5.7909.5559-8.023-1.8599-2.5489-4.3328-4.8141-5.927-7.6427-2.5132-4.4368-2.2478-9.5079-2.4987-14.3721.089-3.2427-.0267-6.5373.8007-9.7126.3806-1.5747.8152-3.1101,1.0107-4.6557.3053-2.6932.1288-6.8042.2814-9.5802.1204-5.5833-4.0857-10.3467-8.6945-12.9898-.7046-.5571-1.1995-1.2145-1.757-1.6864-1.08-.9336-2.7186-1.3212-4.1791-2.0885-2.4217-1.1556-5.3117-1.2591-7.8771-.514-1.2052.4421-3.0442.884-3.8559-.5231-.8193-1.7134-.1123-3.197-.6984-4.8641-1.2179-3.7418-4.8289-6.1846-8.3959-7.4633-3.0342-1.214-6.4818-.3041-9.5319-1.496-.8216-.4062-1.3673-1.0897-1.9424-1.5713-2.8389-2.1254-8.253-2.079-10.1836,1.2342h0Zm-.617-.3543c2.1568-3.768,8.1277-3.8649,11.3113-1.4757.6491.5499,1.1473,1.1531,1.7935,1.4545,2.9796,1.053,6.4176.1884,9.4481,1.3978,3.8791,1.3716,7.6767,3.956,9.0132,8.0217.5543,1.3836.048,3.3719.6206,4.6152.2895.4922.9161.61,1.6294.4218,1.548-.4847,3.1875-.9025,4.8338-.8815,1.6917.0094,3.3498.3493,4.9006,1.0685,1.3716.734,3.0039,1.0498,4.4206,2.2118.6684.5715,1.1602,1.2107,1.7289,1.6447,3.5555,1.9238,6.563,5.1672,8.1974,8.9261,1.3746,2.6766.7742,6.8595.7984,9.7486,0,0-.0548,2.414-.0548,2.414.1085,4.0863-1.8032,7.8444-1.8375,11.9054-.1412,3.2043-.2277,6.3628.096,9.5785.2024,3.1888.4779,6.4059,2.1102,9.0819,1.5854,2.8147,3.965,4.9465,5.8768,7.5936,1.9434,2.6807,2.0939,7.4033-.9377,9.3539-.7895.4368-1.6282.6034-2.4064.7815-1.6022.302-2.8965,1.2693-4.5289,1.6384-1.6843.2979-3.1745-.0037-4.8418.3265-7.1625,1.0311-14.6741,1.6159-21.6343-.801-2.9259-1.4674-5.4487-3.3773-8.6489-4.1447-3.1066-.9995-6.2102-1.3334-9.4713-1.2459-5.5214-.4684-11.3554-.0819-16.4961,2.0817-2.1288,1.1705-5.0099.0234-6.953,1.3967-.9495.6458-1.6527,1.9345-2.9082,2.2638-.9076.1815-1.7012-.2402-2.4875-.5433-1.1444-.3991-2.3889-.8588-3.2299-1.819-3.3911-4.1008.3021-9.6128-.1953-14.2224-.3527-3.0949-1.9875-6.1676-2.4385-9.2438-.3867-1.448-1.3017-2.9151-1.4883-4.6404-.3918-3.364.5529-6.6916,2.2651-9.5396.8209-1.481,2.2978-2.4362,3.6887-3.3113,1.299-.9046,2.5274-1.9174,3.7022-2.9917,4.4288-4.3323,9.309-9.1569,10.9024-15.2966.792-3.8882-.0546-7.9347-.5789-11.8142-.4049-1.5213-.3906-3.312-.1906-4.8808.0877-.7614-.0225-1.877-.019-2.2767-.2012-.5757-.2498-1.2449-.0443-1.8408.1877-.6008.5577-1.0979.952-1.5401,0,0-.061.0788-.061.0788l3.163-5.4957h0Z" style="fill:#663715;"/><path d="m52.3471,24.552c-1.7737.2373-3.6617,1.4194-4.9064,2.7375-.1198.1531-.2551.3317-.2709.5013.3791,1.7129.3522,3.4904.1585,5.1776-.3137,3.9152.4005,7.8619.9662,11.7265.3585,1.9367.6977,4.1073-.0121,6.0553-1.3011,3.0965-3.0377,5.9633-5.0401,8.6491-.9986,1.3273-2.4524,2.4337-4.0083,3.1085-1.4108.8033-1.986,2.4221-3.1014,3.6018,0,0-1.351,1.4333-1.351,1.4333-6.2194,5.8691-3.0446,14.8724-3.4139,22.3115-.0197,2.6276,2.8425,4.268,5.2231,3.9508,1.1995-.2279,2.2783-1.0554,3.4578-1.6813,1.2362-.7092,2.6615-.664,3.9199-.8772,3.9065-.7432,7.949-.1421,11.8792.1389,0,0,3.9415.3395,3.9415.3395,3.9806.1146,7.852,1.5152,11.3741,3.3261,5.0586,3.0716,10.2648,5.9042,16.2076,6.6967,1.2928.1262,2.6368-.1354,3.9648.0591,1.8347.2549,3.9038.8879,5.5981.1135,1.4312-.6719,2.8545-2.6177,1.8621-4.1926-2.1176-4.1572-3.6107-8.4952-5.3854-12.8346-1.9762-5.0377-1.5623-10.5794-1.0126-15.8698,1.0013-8.234,5.6091-19.6675-3.2582-25.0368-1.6686-.8728-3.0659-2.4823-4.9131-2.8441-1.1988-.0491-2.7225-.0636-3.9249-.2709-1.9651-.1766-4.1137-.343-5.9026-1.2948-2.4261-1.269-4.2643-3.3867-5.6364-5.7044-.6113-1.1864-1.3703-2.1451-2.4099-2.9377-2.0114-1.6243-4.5673-2.4818-6.7522-4.0559-2.1158-1.5718-4.6219-2.3786-7.2533-2.3271h0Zm-.0032-.4686c2.6862-.0943,5.406.7485,7.5683,2.3314,2.1162,1.5002,4.6964,2.3295,6.84,4.0096,1.085.7878,2.0042,1.9381,2.6058,3.0949,1.3235,2.1811,3.103,4.2005,5.3962,5.3552,1.6404.8554,3.7835.9861,5.6302,1.1334,1.4183.2197,2.5179.1558,3.9604.2208,2.0907.3296,3.5441,1.9964,5.3476,2.9217,9.4341,5.4651,4.9114,17.4683,3.7483,26.003-.535,5.1283-.9851,10.4755.9295,15.403,1.7591,4.5927,3.6569,9.266,5.7124,13.7505.2154,1.868-1.1117,3.6824-2.7776,4.4449-2.0586.8752-4.0775.1795-6.0836-.1214-4.7365.1162-9.1687-1.1133-13.4316-3.1779-5.7352-3.1401-11.2162-7.2741-18.0312-7.3713-5.1594-.3804-10.5929-1.3123-15.7181-.3633-1.3166.2351-2.6526.218-3.7404.8753-1.1311.6078-2.1888,1.4876-3.6083,1.7917-2.7676.4306-5.9947-1.5113-6.0201-4.4817.1819-9.3842-3.4159-17.1333,4.7437-24.4603,1.1113-1.2021,1.8133-2.9547,3.3668-3.7742,1.4816-.6427,2.7345-1.553,3.7445-2.8592.8238-.9911,1.5219-2.0691,2.189-3.2046,1.2752-2.2052,3.0031-4.3696,3.2057-6.9478-.0242-3.886-1.0745-7.8241-1.1802-11.7426-.2808-3.0484.6023-6.1531-.0762-9.1396.1972-.9905,1.213-1.5707,1.9382-2.1314,1.1314-.7183,2.2927-1.4253,3.7406-1.5599h0Z" style="fill:#663715;"/><path d="m57.1106,34.8846c-1.4622,1.9674-1.8713,4.4935-2.1846,6.8576.0007.3729.3029.8284.482,1.2929,3.2675,7.0528.5128,14.1984-5.163,18.9953-2.2095,2.0045-4.5119,3.7328-5.2483,6.7032-.2635.9621-.7712,1.9519-1.1989,2.7892-.8148,1.7186-1.1156,3.7604-1.7035,5.5802-.22.928-.4187,1.9718-.7802,2.906-.3356.9006-.4944,1.82-.0202,2.5153,1.1969,1.6423,3.3828.8145,4.8215-.222,3.428-2.2893,7.738-2.5139,11.6241-2.1318,1.9616.0019,4.0579.1225,5.8603,1.0537,1.8239.8532,3.4108,2.0754,5.091,3.0988,1.673,1.0262,3.5082,1.8258,5.1479,3.0142,1.5979,1.2201,2.9158,2.7757,4.8045,3.2199.9334.2767,1.8491.2498,2.9399.4627,1.9738.8256,3.0433,2.4605,5.0575,3.097,4.0619,1.492,4.3075-1.1715,2.6687-4.2056-1.2859-2.7305-2.7829-5.4317-3.1861-8.4735-.1795-2.0147.5318-4.0004.622-5.9922.0927-2.4271-.3174-4.9392-.2417-7.4064.2559-1.5246.4162-2.8357.5923-4.4878.0749-.4958.315-.9472.396-1.4299.2736-1.4591-.3305-2.7013-.4424-4.266-.1251-1.0021.2527-2.0223.2831-3.012.1975-2.0446-.9739-3.2864-2.6406-4.3026-1.6334-1.0652-3.3194-2.0852-5.1795-2.117-1.0083-.0203-2.0182-.1265-3.0022-.2425l-1.472-.1693c-2.5784-.2417-4.9434-1.699-6.6674-3.5515-2.1623-2.1651-2.2776-5.5427-4.0327-7.9431-1.0948-1.6173-2.8535-2.6117-4.7952-2.6411-.9361-.0364-1.9067.2514-2.4326,1.0083h0Zm-.3622-.2536c2.1139-2.5935,6.5077-.8415,8.0665,1.5376,1.8385,2.3905,1.9354,5.6471,4.0896,7.7984,1.6553,1.7097,3.8312,3,6.217,3.1861,0,0,1.4843.1427,1.4843.1427.9857.0974,1.9513.1808,2.9256.1823,2.1807.0059,4.0695,1.1372,5.7351,2.1758.8513.568,1.7119,1.0998,2.414,2.0552.6581.9882.7892,2.1278.7549,3.1778-.0087.9962-.3853,1.8955-.2794,2.888.1078,1.3766.7626,3.0382.4343,4.5541-.0775.4946-.3076.9499-.3933,1.432-.1414,1.3087-.3013,2.9268-.5662,4.3396-.0613,2.4875.3218,4.9192.1983,7.4394-.093,1.9288-.8093,3.9306-.6675,5.7985.3577,2.8518,1.8452,5.5559,3.0171,8.1616,3.2354,6.4201-2.0839,7.3481-6.491,3.8058-.7836-.6365-1.4741-1.3731-2.2971-1.6465-1.8459-.2374-4.14-.5968-5.5985-1.9996-2.1567-2.1397-4.6542-3.5263-7.3011-5.0127-1.6933-1.0495-3.2635-2.2733-5.0348-3.1156-1.7943-.9517-3.7426-.9645-5.7335-.9494-3.8807-.2666-8.0038-.049-11.2669,2.2542-1.5755,1.2273-4.3249,2.1498-5.7867.1116-1.2045-1.9498.4045-3.9999.5599-6.0459.6024-1.95.8533-3.9079,1.7171-5.7874.4596-.932.8643-1.7147,1.1228-2.6727.665-3.0306,3.386-5.205,5.5487-7.097,5.5152-4.5918,8.3183-11.2239,5.3109-18.1059-.1576-.4576-.4771-.8508-.5117-1.4868.0154-.5664.1489-1.0274.2351-1.5188.3298-1.9553.8634-3.9957,2.0966-5.6021h0Z" style="fill:#663715;"/><path d="m64.6923,49.747c-.851,1.9146-1.9671,3.6925-1.9062,5.8427.1607,2.287-.9009,4.3577-2.7153,5.7001-1.5489,1.3184-3.4666,2.4078-4.4857,4.149-1.2348,2.578-1.8872,6.1092,1.8573,6.5639,1.4546.2067,3.3251-.5805,4.8988.0912,1.8934,1.1263,3.7514,1.491,5.9022,2.1422,2.675,1.0128,4.0827,3.5183,6.1517,5.2735,1.3276,1.5397,2.5529,3.4503,4.5648,4.0654.8585.2406,1.8145-.2884,1.5809-1.2414-.726-2.0606-.6293-4.1849-.6061-6.2833-.0191-1.9703-1.405-3.6913-1.8423-5.947-.7522-4.0307,3.8896-8.153.7646-11.8077-.6384-.937-1.1254-1.2105-2.2721-1.3207-2.6271-.2876-5.8287-1.3662-6.6511-4.2199-.1522-.5147-.2623-1.0387-.4316-1.4878-.2845-.915-1.2583-1.3264-2.2322-1.6352-.7572-.221-2.1026-.6221-2.5777.1149h0Zm-.495-.2211c.8978-1.5235,3.5505-.4374,4.7705.1749,1.5649.8235,1.2732,2.908,2.3427,4.0967,1.3148,1.5748,3.431,1.9915,5.4064,2.1942.4599.0781,1.1314.0861,1.7091.4277,1.0599.7217,1.6409,1.5694,2.1814,2.6889,1.6996,3.6909-2.0276,7.3507-1.4967,10.814.3101,1.8986,1.759,3.7324,1.8224,6.0735-.0135,2.3078-.1703,3.9832.4049,6.2327.2726,1.3866-1.3025,2.4231-2.5357,1.9419-2.1395-.714-3.3958-2.5763-4.9627-3.968-1.7478-1.0566-3.2778-2.684-4.9735-3.7528-1.7257-1.1789-3.8807-1.1203-5.806-2.1412-.4781-.2488-.8577-.5586-1.3117-.7546-1.4114-.558-2.8464.1377-4.4884-.2065-1.8008-.2209-3.5341-1.6497-3.759-3.5244-.0802-2.7983,1.2549-5.6894,3.5525-7.2439,2.5409-1.9139,5.3619-3.3907,5.0945-7.0378-.0449-2.1468,1.1652-4.1426,2.0491-6.0153h0Z" style="fill:#663715;"/><path d="m40.7008,8.2341c-1.2106.8901-2.9088,1.0097-3.8665,2.2371-.7714,1.2621-1.0916,2.8463-2.1214,3.9753-.6097.7964-1.1087,1.6777-1.2986,2.6676-.6487,3.9535-1.4077,7.9065-2.1724,11.8633-1.387,6.7211-.6767,14.6213-5.767,19.9898-1.7361,2.3497-3.7167,4.9271-5.865,6.9067-1.4752,1.3793-3.0418,2.6443-4.4937,4.0213-2.9734,2.6783-5.0558,6.2533-6.0182,10.1165-.5135,1.9161-.4986,3.9477-.9261,5.9442-.3671,1.953-.6958,3.9646-.4333,5.9108.7606,3.8887,2.5328,7.6814,2.7275,11.7319.4127,5.9599-.3259,12.1915,2.2693,17.7642,1.1797,2.8046,2.9804,5.1975,5.3543,7.0925.7276.6972,1.3913,1.4803,2.3197,1.78.9245.3039,1.9422.2259,2.948.2377,2.9655.1941,6.0378.9934,8.9163-.1061,1.8155-.8407,3.7365-1.5203,5.7203-1.878,1.9218-.535,3.7379-1.4823,5.737-1.8626,2.916-.7074,5.7938-1.7599,8.8475-1.8531.5019-.0249,1.0504.0198,1.5098.2871.4564.2577.81.6225,1.2498.8327.8851.427,1.9271.3733,2.9205.6061,1.9293.6639,3.5986,1.7287,5.6738,1.9514,1.9809.6348,3.9705.3056,5.9724.7297,2.9395.6753,5.8286,1.574,8.7652,2.2418,1.9532.4623,3.9395.731,5.9306,1.0436,1.9911.3882,3.9147.737,5.9379.3832.8336-.1304,2.1714-.1894,2.9845-.3293,1.9642-.382,3.734-1.5757,5.7771-1.7328,1.0127-.0917,1.9988-.134,2.8598-.609.8639-.4382,1.7226-1.0695,2.7245-1.3423,1.919-.6143,3.3674-2.0582,4.9423-3.2721,1.5873-1.1801,2.479-3.2213,4.1728-4.3111.7279-.6176,1.2079-1.4972,1.7079-2.3674,2.3117-3.2674,3.9421-7.0158,3.6715-11.0982-.078-1.991-.2681-4.0223-.3001-6.0212-.0199-2.007-.2229-3.9532-1.3336-5.666-1.592-2.4606-3.7954-4.9421-4.0266-8.0788-.697-3.9206-1.0154-8.071-1.1405-12.0353-.0555-4.985.0735-10.1115.2036-15.0754-.0325-3.0043-.3629-6.0377-.2179-9.0589.3103-3.0018.0461-6.0092-1.9953-8.3795-.9966-1.7372-2.9273-2.7675-3.8086-4.6224-.5535-.951-1.4433-1.0797-2.3675-1.5708-1.7174-1.1557-3.6343-1.5266-5.5388-2.2638-.9418-.3791-1.7121-1.0307-2.6966-1.2786-1.9486-.5841-3.9519-.3198-5.9638-.6022-1.0502-.1792-1.9114-.7905-2.8507-.9886-.9738-.1642-2.0456-.3111-2.9344-.8032-.9247-.4561-1.7361-1.1236-2.4052-1.8934-.6083-.7693-1.6149-1.044-2.4383-1.7021-1.4024-1.4929-2.7724-2.9226-4.428-4.059-1.6759-1.0615-3.7401-1.6069-5.2072-3.0076-.7575-.6404-1.8764-.4992-2.8055-.9319-2.888-.972-5.9904-.5493-8.914-1.3738-3.8206-1.4109-7.7777-1.879-11.8431-1.6509-2.0316-.1457-4.0356.2062-5.6657,1.5108h0Zm-.0317-.0448c1.6242-1.3038,3.6666-1.7077,5.6965-1.5581,2.0084-.0319,4.0267-.0885,6.0338.1264,2.0268.1679,3.9201.9513,5.8515,1.4619,1.9318.5585,3.9643.489,5.9658.7323,1.5203.0913,2.9392.6682,4.416.9699.4954.0773,1.022.2534,1.4306.5739,1.4714,1.4263,3.4852,1.8711,5.2175,2.9732,1.6774,1.1344,3.1249,2.6195,4.4739,4.0429.7412.5986,1.8056.8868,2.4906,1.7225.6542.7415,1.4312,1.3694,2.3158,1.7985.9049.493,1.8537.5775,2.8599.7543,1.0372.2222,1.8883.8191,2.8428.965,1.9617.2609,4.0548-.0159,6.0123.5697.9929.2418,1.8279.901,2.7511,1.2748,1.852.6918,3.9397,1.1315,5.6071,2.2492.9063.4587,1.9721.6895,2.5475,1.7052.7522,1.3649,1.8016,2.3156,2.9332,3.3643.9528,1.2563,1.8495,2.3958,2.4894,3.8903.6543,1.9544.6909,4.0663.4989,6.0715-.1456,3.0127.1821,6.0012.2122,9.0273-.1332,5.0048-.2625,10.0695-.2139,15.0804.1253,3.94.4396,8.0501,1.1248,11.9538.2516,3.1294,2.3059,5.3197,3.9562,7.9016,1.7328,2.6425,1.2993,5.9256,1.5196,8.915.2584,3.007.3921,6.1553-.702,9.039-.5871,1.949-1.8231,3.6591-2.8782,5.3305-.5022.8589-1.0032,1.7894-1.8238,2.4826-1.7394,1.1321-2.5418,3.0721-4.2083,4.3011-1.5918,1.2164-3.1056,2.6974-5.0791,3.3104-.9592.2547-1.753.8408-2.678,1.3071-1.8936.8887-3.9802.4191-5.8532,1.3877-1.375.5785-2.8928,1.0749-4.4078,1.1002-1.481.1048-3.0483.4297-4.5377.2666-2.9906-.54-5.957-.9178-8.9261-1.5878-3.9225-.7559-7.7022-2.5792-11.7304-2.5237-2.0248-.181-3.9929-.6348-5.9175-1.282-.9466-.3817-1.7849-.9644-2.7492-1.1901-.9549-.2322-2.0068-.1734-2.9593-.6315-.8751-.5196-1.5619-1.2721-2.666-1.1101-3.0512.0785-5.8805,1.1178-8.817,1.8492-2.9576.7742-5.5198,1.9583-8.6311,2.6279-2.8045,1.32-5.6609,2.1667-8.7982,1.6228-2.0307-.4384-4.0035-.0816-6.0215-.5448-1.0265-.3317-1.7241-1.1639-2.4364-1.8347-.7253-.6814-1.5259-1.3012-2.2295-2.0436-2.6792-3.057-4.3191-6.9534-4.9219-10.9488-.6762-3.9836-.3352-8.055-.6779-12.0456-.2166-4.0928-1.9882-7.7213-2.7739-11.7059-.2817-2.0577.0523-4.0874.4136-6.0701.4123-1.9399.4225-3.9819.9579-5.9638,1.0017-3.9366,3.1669-7.5902,6.1991-10.2872,2.9939-2.6951,6.1518-5.168,8.5478-8.4417,0,0,1.8435-2.3883,1.8435-2.3883,5.1019-5.3341,4.3846-13.1006,5.8233-19.8433.786-3.948,1.5615-7.8852,2.2361-11.8513.196-.9992.7162-1.9093,1.3313-2.7013,1.0421-1.136,1.348-2.6799,2.1418-3.9607.9675-1.2365,2.6889-1.3539,3.8969-2.2351h0Z" style="fill:#663715;"/><path d="m90.0474,99.4545c-2.1201,0-4.2816-.8301-6.4864-1.765-1.4256-.6045-2.717-1.3487-4.0842-2.1368l-.5424-.3123c-.4005-.2296-.769-.5116-1.1252-.7844-.3983-.3047-.8097-.6197-1.2609-.8558-.3521-.1842-.7362-.3346-1.1079-.48-.311-.1215-.6322-.2471-.9362-.3928-1.794-.8612-3.503-1.433-5.3121-2.0384-.2401-.0804-.4782-.1611-.7154-.2413-.8835-.2993-1.7183-.582-2.605-.8355-.5366-.1532-1.1204-.2152-1.6852-.275-.7869-.0834-1.6005-.1698-2.313-.5031-.4458-.2088-.8431-.4581-1.2276-.6992-.7279-.4567-1.4153-.8882-2.3508-1.0055-1.1229-.1409-2.3332-.2048-3.8961-.1972-.3026.0008-.6046.0005-.906-.0002-1.6406-.0005-3.3406-.0051-5.012.2168-2.1384.2837-3.8368.3347-5.5075.1653-.198-.0201-.3964-.0321-.5937-.044-.604-.0367-1.2285-.0746-1.8104-.3517-.4551-.2168-.8951-.5392-1.3203-.851-.1807-.1325-.3591-.2633-.5353-.3834-4.2954-2.9282-1.8803-8.7703-.5828-11.909.2163-.5226.4172-1.0552.6114-1.5702.4917-1.3036,1-2.6517,1.7818-3.8912.2513-.3986.4634-.8266.6685-1.2406.2102-.4244.4275-.8633.6874-1.2707.2625-.4116.605-.7524.9362-1.082.2661-.2653.5414-.5393.7699-.8461.8591-1.1539,1.9683-2.191,3.0412-3.1941.414-.3872.8421-.7876,1.2436-1.1839,1.3113-1.2942,2.2427-2.7908,2.9311-4.7105,1.2144-3.3866,1.2789-6.8033.2028-10.7527-.1155-.4244-.2474-.866-.3748-1.293-.4403-1.4744-.8957-2.999-.9143-4.4923-.0138-1.0982.026-1.9453.129-2.7465.0266-.2067.034-.4289.042-.6642.0112-.3243.0228-.6595.0883-.953.3075-1.3726,3.0206-3.7044,4.7594-4.0901h0c1.6656-.3694,2.9908-.1549,4.1603.0345.2843.0461.5533.0895.8148.1226.6634.0838,1.0081.3769,1.3733.6874.2035.173.414.3519.6945.5084.3081.1717.6557.2815,1.0241.3975.2888.0911.5879.1853.8636.3123.9872.4544,2.0395,1.2268,2.9622,2.1748.6797.698.8476,1.511,1.01,2.2971.1088.5258.2211,1.0693.4849,1.584.4718.9209,1.0645,1.9654,1.8829,2.7292.1143.1065.2263.2171.3383.3278.3877.3826.7885.7783,1.2876.996.1213.0528.2333.0982.3389.1409.3912.1582.7003.2832,1.0809.625,1.7446,1.5654,4.0665,1.3807,6.3131,1.2021,1.5395-.1224,3.1326-.249,4.5441.1797,1.2141.3688,2.3155,1.0926,3.3807,1.7927.3132.206.6374.419.9541.6157,1.1287.7008,1.8958,1.8062,2.4147,3.4791,1.147,3.6994.8065,7.7619.3209,11.9467-.1422,1.2247-.3822,2.4357-.6146,3.6068-.3588,1.808-.7298,3.6774-.7301,5.5865-.0006,2.0092.0757,4.0332.1499,5.9905l.0302.8062c.069,1.8648.4259,3.4439.8036,5.1158.4605,2.0389,1.2414,3.8814,1.8704,5.2587.8428,1.8476,1.2889,3.2777,1.4038,4.5006.3729,3.9789-.4933,6.178-2.5742,6.536-.4214.0725-.845.1059-1.2699.1059Zm-35.4904-12.6866c1.5023,0,2.667.0618,3.7588.1987.9715.122,1.674.5626,2.4176,1.0292.3803.2385.7731.4851,1.2102.6895.6871.3217,1.4869.4066,2.2603.4886.5716.0605,1.1631.1232,1.7128.2805.8909.2547,1.7273.5379,2.6127.8378.2372.0802.475.1608.7147.241,1.8142.6072,3.5277,1.1807,5.3313,2.0461.2981.1431.6165.2677.9246.3882.3758.1468.7645.2988,1.1245.4872.4634.2426.8806.5621,1.2844.871.3521.2694.716.5482,1.1069.7723l.543.3124c1.3627.7855,2.6496,1.5273,4.0662,2.1279,2.6233,1.1122,5.1827,2.075,7.6645,1.6482,1.9814-.3408,2.8017-2.4802,2.4381-6.3585-.1483-1.5819-.8643-3.296-1.3896-4.4477-.6322-1.3845-1.4172-3.2371-1.8813-5.2907-.3793-1.6796-.7378-3.266-.8075-5.146l-.0302-.806c-.0738-1.959-.1505-3.9845-.1499-5.9968.0003-1.9251.3729-3.8027.733-5.6184.2317-1.168.4715-2.3757.613-3.5938.4833-4.1665.8229-8.2104-.3152-11.879-.5061-1.6331-1.251-2.7096-2.3441-3.3883-.3187-.1979-.6435-.4114-.9577-.618-1.0555-.6937-2.1467-1.4111-3.338-1.7728-1.3823-.4196-2.9584-.2945-4.4838-.1731-2.2806.1813-4.6388.3691-6.4357-1.2436-.3591-.3225-.6563-.4427-1.0328-.595-.1069-.0432-.2202-.0891-.3428-.1427-.5273-.2298-.9394-.6364-1.3376-1.0296-.1107-.1096-.2218-.2192-.3351-.3248-.8367-.7812-1.4384-1.8407-1.9169-2.7743-.2738-.5344-.3887-1.0891-.4994-1.6257-.165-.7982-.3206-1.552-.9667-2.2157-.9095-.9339-1.9439-1.6939-2.9134-2.1401-.2664-.1226-.5603-.2152-.8444-.3047-.3601-.1134-.732-.2308-1.0549-.4108-.2946-.1643-.5112-.3485-.7208-.5267-.3607-.307-.6727-.5719-1.2873-.6496-.2644-.0334-.5347-.0772-.8206-.1234-1.1541-.1871-2.4628-.3991-4.0986-.0363h0c-1.6579.3678-4.3432,2.6657-4.6343,3.9656-.0623.2784-.0735.6059-.0844.9227-.0077.2287-.0157.465-.0433.6794-.1021.7933-.1412,1.6334-.1277,2.7238.0183,1.4702.4705,2.9837.9073,4.4472.1281.428.26.8705.3761,1.2967,1.0854,3.9836,1.0196,7.4317-.2067,10.8516-.6971,1.9436-1.6409,3.4598-2.9702,4.7718-.4034.3981-.8322.7991-1.2471,1.1871-1.0674.9981-2.1711,2.0302-3.0216,3.1723-.2356.3164-.5151.595-.7856.8643-.3248.3233-.6605.6578-.9134,1.0539-.2551.4-.4705.8349-.6788,1.2555-.207.4177-.4207.8495-.6765,1.2552-.7731,1.2255-1.2561,2.5058-1.7674,3.8615-.1948.5162-.396,1.0501-.613,1.5751-1.2799,3.0954-3.6618,8.8573.5231,11.7104.1778.121.3578.2529.5401.3866.4191.3073.8527.625,1.2937.8352.553.2633,1.1342.2986,1.7497.336.1996.012.3999.0242.6005.0446,1.657.1683,3.3441.1173,5.469-.165,1.6827-.2232,3.3839-.2197,5.0342-.2181.3004.0006.6024.001.905.0002.0533-.0002.1062-.0002.1585-.0002Z" style="fill:#663715;"/><path d="m74.2687,74.1825c-.5751,0-1.2821-.539-1.761-.9041l-.1428-.1083c-.3026-.2266-.5921-.4877-.8723-.7401-.3947-.3558-.803-.7237-1.252-.9989-.6062-.3716-1.2468-.5347-1.925-.7075-.2032-.0518-.4079-.104-.6133-.1624-.2275-.0647-.4894-.1301-.7715-.2006-1.6862-.4215-3.9953-.9991-4.2572-2.6204-.1772-1.0971.0687-2.5886.6117-3.7116.2888-.5981.5748-1.0685.8999-1.4806l.0915-.116c1.1566-1.467,2.2491-2.8526,3.3724-4.4582.2789-.3988.6342-.6346,1.0555-.7014.5173-.0818,1.1226.1054,1.6628.5129.2381.1797.5713.3615.924.5539.8553.4668,1.8248.996,1.9882,1.7756.1075.5146-.1505,1.2301-.3784,1.8614-.0995.2752-.1932.5352-.2446.7471-.2959,1.2147-.3139,2.191-.0584,3.1655.2429.9275.8267,1.7845,1.3912,2.6134.7773,1.1414,1.5809,2.3215,1.5093,3.7063-.0327.6321-.3906,1.8574-1.105,1.9649-.0408.0063-.0828.0091-.1252.0091Zm-6.5522-16.1617l.0674.0472c-1.1262,1.6095-2.2199,2.9969-3.3781,4.4658l-.0915.116c-.3174.4025-.5973.8633-.8813,1.4505-.5292,1.095-.7693,2.5472-.5969,3.6137.2442,1.5146,2.493,2.0768,4.1346,2.4874.284.0709.5475.1369.7767.202.2038.0579.4073.1096.6091.1611.6903.1759,1.3428.342,1.9702.7264.4618.2832.8758.6563,1.276,1.017.2773.25.5639.5085.8604.7306l.1441.1091c.4628.3525,1.234.9411,1.7622.8633.5847-.0881.9339-1.2085.965-1.811.069-1.3295-.6839-2.4349-1.4811-3.6054-.5722-.8404-1.164-1.7093-1.4144-2.6641-.2625-1.0023-.2446-2.0034.0578-3.2461.0536-.2205.1489-.4844.2497-.764.2205-.6109.4702-1.3031.372-1.772-.1473-.7054-1.0815-1.2152-1.9057-1.665-.3582-.1954-.6964-.3801-.9442-.5669-.5055-.3811-1.0668-.5575-1.5382-.4817-.3758.0594-.6942.2725-.9464.6332l-.0674-.0472Z" style="fill:#663715;"/></g></g></svg>