<?xml version="1.0" encoding="UTF-8"?><svg id="Layer_2" xmlns="http://www.w3.org/2000/svg" viewBox="0 0 163.1633 71.5552"><g id="Components"><g id="ffb04ed0-57ee-47c4-b675-1e5b3a947bb1_25"><path d="m13.9177,18.9381l1.4521-.5705c.5843-.2296,1.1751.2376,1.1426.8646-.2183,4.2145,3.1005,8.5232,6.8077,8.5232,5.959,0,8.5186-6.8789,4.0791-11.438-1.4795-1.52-7.4385-5.1992-8.7188-6.519-3.8389-3.9194-1.3594-9.7983,4.0391-9.7983,3.2442,0,5.7412,2.1703,5.9143,5.0682.0194.3244-.1763.6258-.4644.7761l-1.0214.5328c-.564.2942-1.2197-.1061-1.2563-.7412-.1532-2.6569-1.3532-4.276-3.1721-4.276-2.9189,0-3.5986,3.7993-1.1592,6.3989.7197.7598,7.5986,5.3589,9.2783,6.9985,6.0791,5.9189,1.2793,14.3579-7.5186,14.3579-5.4339,0-9.7527-4.1214-9.954-9.3589-.0138-.3592.217-.6868.5516-.8183Z" style="fill:#663715;"/><path d="m41.8689,14.7878L33.7498,1.8769c-.3599-.5723.0514-1.3169.7275-1.3169h1.6508c.2946,0,.5687.1509.7262.3999l6.9574,10.9977c.3329.5262,1.0974.5348,1.442.0162L52.5837.9438c.1593-.2397.428-.3837.7157-.3837h1.4191l-8.7756,13.2215c-.0935.1409-.1434.3062-.1434.4752v13.439c0,.4746-.3848.8594-.8594.8594h-2.0801c-.4746,0-.8594-.3848-.8594-.8594v-12.4505c0-.1619-.0457-.3205-.1319-.4575Z" style="fill:#663715;"/><path d="m57.6004,1.4194c0-.4746.3848-.8594.8594-.8594h7.46c9.3584,0,14.5176,5.1987,14.5176,14.2773,0,8.8384-5.0391,13.7178-14.5977,13.7178h-7.3799c-.4746,0-.8594-.3848-.8594-.8594V1.4194Zm6.999,25.8159c8.6787,0,11.8779-3.3594,11.8779-12.3979,0-9.2383-3.3193-12.918-11.7979-12.918h-2.2598c-.4746,0-.8594.3848-.8594.8594v23.5972c0,.4746.3848.8594.8594.8594h2.1797Z" style="fill:#663715;"/><path d="m106.117,1.4194v26.2764c0,.4746-.3848.8594-.8594.8594h-2.8164c-.3002,0-.5786-.1566-.7344-.4131l-13.5126-22.2396c-.4513-.7427-1.5938-.4228-1.5938.4462v21.3471c0,.4746-.3848.8594-.8594.8594h-.041c-.4746,0-.8594-.3848-.8594-.8594V1.4194c0-.4746.3848-.8594.8594-.8594h2.8172c.3002,0,.5787.1567.7345.4133l13.5526,22.3174c.4512.7429,1.5939.4231,1.5939-.4461V1.4194c0-.4746.3848-.8594.8594-.8594h0c.4746,0,.8594.3848.8594.8594Z" style="fill:#663715;"/><path d="m126.0204,27.1953v1.3599h-14.7822c-.3964,0-.7178-.3848-.7178-.8594V1.4194c0-.4746.3214-.8594.7178-.8594h14.0473v1.3594h-10.8401c-.3964,0-.7178.3848-.7178.8594v10.3129c0,.4771.3246.8629.7232.8594l8.1952-.0736v1.3599l-8.2061.0737c-.3943.0035-.7124.3873-.7124.8594v10.1656c0,.4746.3214.8594.7178.8594h11.575Z" style="fill:#663715;"/><path d="m136.948,14.7878l-8.1191-12.9109c-.3599-.5723.0514-1.3169.7275-1.3169h1.6508c.2946,0,.5687.1509.7262.3999l6.9574,10.9977c.3329.5262,1.0974.5348,1.442.0162l7.2407-10.896c.215-.3235.5776-.5179.9659-.5179h1.2581l-8.7756,13.2215c-.0935.1409-.1434.3062-.1434.4752v13.439c0,.4746-.3848.8594-.8594.8594h-2.0801c-.4746,0-.8594-.3848-.8594-.8594v-12.4505c0-.1619-.0457-.3205-.1319-.4575Z" style="fill:#663715;"/><path d="m56.7248,44.4194v26.2764c0,.4746-.3848.8594-.8594.8594h-2.0811c-.4746,0-.8594-.3848-.8594-.8594v-11.5991c0-.4746-.3848-.8594-.8594-.8594h-11.5586c-.4746,0-.8594.3848-.8594.8594v11.5991c0,.4746-.3848.8594-.8594.8594h-2.0811c-.4746,0-.8594-.3848-.8594-.8594v-26.2764c0-.4746.3848-.8594.8594-.8594h2.0811c.4746,0,.8594.3848.8594.8594v11.5986c0,.4746.3848.8594.8594.8594h11.5586c.4746,0,.8594-.3848.8594-.8594v-11.5986c0-.4746.3848-.8594.8594-.8594h2.0811c.4746,0,.8594.3848.8594.8594Z" style="fill:#663715;"/><path d="m65.7268,44.4194v26.2764c0,.4746-.3848.8594-.8594.8594h-2.0811c-.4746,0-.8594-.3848-.8594-.8594v-26.2764c0-.4746.3848-.8594.8594-.8594h2.0811c.4746,0,.8594.3848.8594.8594Z" style="fill:#663715;"/><path d="m91.7238,44.9194h-8.2188c-.4746,0-.8594.3848-.8594.8594v24.917c0,.4746-.3848.8594-.8594.8594h-2.0811c-.4746,0-.8594-.3848-.8594-.8594v-24.917c0-.4746-.3848-.8594-.8594-.8594h-8.2588v-1.3594h21.9961v1.3594Z" style="fill:#663715;"/><path d="m115.7238,44.9194h-8.2188c-.4746,0-.8594.3848-.8594.8594v24.917c0,.4746-.3848.8594-.8594.8594h-2.0811c-.4746,0-.8594-.3848-.8594-.8594v-24.917c0-.4746-.3848-.8594-.8594-.8594h-8.2588v-1.3594h21.9961v1.3594Z" style="fill:#663715;"/><path d="m163.1633,44.4194v26.2764c0,.4746-.3848.8594-.8594.8594h-2.8164c-.3002,0-.5786-.1566-.7344-.4131l-13.5126-22.2396c-.4513-.7427-1.5938-.4228-1.5938.4462v21.3471c0,.4746-.3848.8594-.8594.8594h-.041c-.4746,0-.8594-.3848-.8594-.8594v-26.2764c0-.4746.3848-.8594.8594-.8594h2.8172c.3002,0,.5787.1567.7346.4133l13.5516,22.3172c.4511.743,1.5939.4232,1.5939-.446v-21.4251c0-.4746.3848-.8594.8594-.8594h.001c.4746,0,.8594.3848.8594.8594Z" style="fill:#663715;"/><path d="m136.2002,70.1579v1.3599h-14.7822c-.3964,0-.7178-.3848-.7178-.8594v-26.2764c0-.4746.3214-.8594.7178-.8594h14.0473v1.3594h-10.8401c-.3964,0-.7178.3848-.7178.8594v10.3129c0,.4771.3246.8629.7232.8594l8.1952-.0736v1.3599l-8.2061.0737c-.3943.0035-.7124.3873-.7124.8594v10.1656c0,.4746.3214.8594.7178.8594h11.575Z" style="fill:#663715;"/><path d="m31.907,44.3926c0,.1-.02.19-.05.29l-9.12,26.3c-.12.34-.45.57-.81.57h-2.35c-.36,0-.68-.23-.8-.57l-2.84-8.2-2.84,8.2c-.12.34-.44.57-.81.57h-2.35c-.36,0-.68-.23-.8-.57L.047,44.6826c-.19-.55.22-1.12.8-1.12h2.2c.3701,0,.69.23.81.5699l7.59,22.05c.27.76,1.35.76,1.61,0l2.02-5.9-5.39-15.6c-.19-.55.22-1.12.8-1.12h2.2c.37,0,.69.23.81.5699l3.57,10.36.87,2.54,3.15,9.15c.27.76,1.35.76,1.61,0l7.56-22.05c.12-.34.44-.5699.8-.5699.49,0,.85.39.85.83Z" style="fill:#663715;"/></g></g></svg>