<?xml version="1.0" encoding="UTF-8"?><svg id="Layer_2" xmlns="http://www.w3.org/2000/svg" viewBox="0 0 271.572 268.9736"><g id="Components"><g id="_8cd3449f-811a-4cd1-9b24-5bad19deaca0_25"><path d="m34.1696,264.9755v-7.3145c0-.2402-.0459-.4668-.1367-.6777s-.2148-.3955-.3711-.5508c-.1553-.1562-.3389-.2803-.5508-.3711-.2109-.0908-.4375-.1367-.6777-.1367h-.7998c-.2402,0-.4668.0459-.6777.1367s-.3945.2148-.5508.3711c-.1562.1553-.2793.3398-.3711.5508-.0908.2109-.1357.4375-.1357.6777v7.3145h-1.2002v-9.9863h.4004l.6533,1.0137c.2734-.3701.6162-.6641,1.0283-.8828.4131-.2178.8633-.3262,1.3516-.3262h.3018c.4033,0,.7832.0762,1.1416.2295.3574.1523.6689.3623.9355.6289.2666.2666.4766.5781.6289.9355.1533.3584.2295.7383.2295,1.1416v7.2461h-1.1992Z" style="fill:#663715;"/><path d="m46.3952,264.9755l-.6631-.9951c-.2734.3574-.6152.6455-1.0244.8633s-.8584.3262-1.3457.3262h-.3027c-.4033,0-.7832-.0762-1.1406-.2285-.3574-.1533-.6699-.3623-.9365-.6289-.2666-.2666-.4766-.5791-.6289-.9365s-.2295-.7383-.2295-1.1406v-.0977c0-.4033.0771-.7842.2295-1.1416.1523-.3574.3623-.6689.6289-.9355s.5791-.4766.9365-.6299c.3574-.1523.7373-.2285,1.1406-.2285h2.5361v-1.541c0-.2402-.0459-.4668-.1367-.6777s-.2148-.3955-.3711-.5508c-.1553-.1562-.3389-.2803-.5508-.3711-.2109-.0908-.4375-.1367-.6777-.1367h-.7021c-.2402,0-.4668.0459-.6777.1367s-.3945.2148-.5508.3711c-.1562.1553-.2793.3398-.3711.5508-.0908.2109-.1357.4375-.1357.6777v.3604l-1.2002-.1943v-.0977c0-.4033.0762-.7832.2295-1.1416.1523-.3574.3623-.6689.6289-.9355.2666-.2666.5791-.4766.9365-.6289.3574-.1533.7373-.2295,1.1406-.2295h.7021c.4033,0,.7832.0762,1.1416.2295.3574.1523.6689.3623.9355.6289.2666.2666.4766.5781.6289.9355.1533.3584.2295.7383.2295,1.1416v7.2461h-.3994Zm-.7998-4.8379h-2.5361c-.2402,0-.4668.0459-.6777.1367-.2109.0918-.3945.2168-.5508.376s-.2793.3447-.3711.5557c-.0908.2109-.1357.4375-.1357.6777v.4189c0,.2412.0449.4668.1357.6787.0918.2109.2148.3945.3711.5508s.3398.2793.5508.3701c.2109.0918.4375.1367.6777.1367h.7998c.2402,0,.4668-.0449.6777-.1367.2119-.0908.3955-.2139.5508-.3701.1562-.1562.2803-.3398.3711-.5508.0908-.2119.1367-.4375.1367-.6787v-2.165Z" style="fill:#663715;"/><path d="m55.1881,264.9755c-.3643,0-.707-.0684-1.0283-.2051-.3223-.1367-.6016-.3252-.8389-.5654s-.4258-.5205-.5654-.8389c-.1406-.3184-.21-.6602-.21-1.0244v-6.2119h-1.7949v-1.1406h1.7949v-2.3994l1.1992-.1953v2.5947h2.5361v1.1406h-2.5361v6.2705c0,.2021.0381.3887.1123.5615.0752.1719.1768.3232.3076.4531.1299.1299.2822.2324.458.3066.1758.0752.3643.1123.5654.1123h1.0928v1.1416h-1.0928Z" style="fill:#663715;"/><path d="m67.1119,264.9755l-.6631-1.0146c-.2734.3711-.6152.665-1.0244.8828s-.8584.3262-1.3457.3262h-.3027c-.4033,0-.7832-.0762-1.1406-.2285-.3574-.1533-.6699-.3623-.9365-.6289-.2666-.2666-.4766-.5791-.6289-.9365s-.2295-.7383-.2295-1.1406v-7.2461h1.2002v7.3135c0,.2412.0449.4668.1357.6787.0918.2109.2148.3945.3711.5508s.3398.2793.5508.3701c.2109.0918.4375.1367.6777.1367h.7998c.2402,0,.4668-.0449.6777-.1367.2119-.0908.3955-.2139.5508-.3701.1562-.1562.2803-.3398.3711-.5508.0908-.2119.1367-.4375.1367-.6787v-7.3135h1.1992v9.9863h-.3994Z" style="fill:#663715;"/><path d="m75.2028,256.1298c-.2402,0-.4668.0459-.6777.1367s-.3945.2139-.5508.3701-.2793.3398-.3711.5518c-.0908.2109-.1357.4365-.1357.6777v7.1094h-1.2002v-9.9863h.4004l.6533,1.0137c.2734-.3701.6162-.6641,1.0283-.8828.4131-.2178.8633-.3262,1.3516-.3262h.7021v1.3359h-1.2002Z" style="fill:#663715;"/><path d="m86.7994,263.3759c-.1523.3574-.3623.6699-.6289.9365-.2666.2666-.5781.4756-.9355.6289-.3584.1523-.7383.2285-1.1416.2285h-.7998c-.4033,0-.7832-.0762-1.1406-.2285-.3574-.1533-.6699-.3623-.9365-.6289-.2666-.2666-.4766-.5791-.6289-.9365s-.2295-.7383-.2295-1.1406v-4.5059c0-.4033.0771-.7832.2295-1.1416.1523-.3574.3623-.6689.6289-.9355.2666-.2666.5791-.4766.9365-.6289.3574-.1533.7373-.2295,1.1406-.2295h.7998c.4033,0,.7832.0762,1.1416.2295.3574.1523.6689.3623.9355.6289.2666.2666.4766.5781.6289.9355.1533.3584.2295.7383.2295,1.1416v4.5059c0,.4023-.0762.7832-.2295,1.1406Zm-.9697-5.7148c0-.2402-.0459-.4668-.1367-.6777s-.2148-.3955-.3711-.5508c-.1553-.1562-.3389-.2803-.5508-.3711-.2109-.0908-.4375-.1367-.6777-.1367h-.7998c-.2402,0-.4668.0459-.6777.1367s-.3945.2148-.5508.3711c-.1562.1553-.2793.3398-.3711.5508-.0908.2109-.1357.4375-.1357.6777v4.6416c0,.2412.0449.4668.1357.6787.0918.2109.2148.3945.3711.5508s.3398.2793.5508.3701c.2109.0918.4375.1367.6777.1367h.7998c.2402,0,.4668-.0449.6777-.1367.2119-.0908.3955-.2139.5508-.3701.1562-.1562.2803-.3398.3711-.5508.0908-.2119.1367-.4375.1367-.6787v-4.6416Z" style="fill:#663715;"/><path d="m98.2252,263.3759c-.1523.3574-.3623.6699-.6289.9365-.2666.2666-.5781.4756-.9355.6289-.3584.1523-.7383.2285-1.1416.2285h-.3018c-.4492,0-.8652-.0908-1.249-.2725s-.7119-.4355-.9844-.7607v4.8369h-1.2002v-13.9844h.4004l.6533,1.0137c.2734-.3701.6162-.6641,1.0283-.8828.4131-.2178.8633-.3262,1.3516-.3262h.3018c.4033,0,.7832.0762,1.1416.2295.3574.1523.6689.3623.9355.6289.2666.2666.4766.5781.6289.9355.1533.3584.2295.7383.2295,1.1416v4.5059c0,.4023-.0762.7832-.2295,1.1406Zm-.9697-5.7148c0-.2402-.0459-.4668-.1367-.6777s-.2148-.3955-.3711-.5508c-.1553-.1562-.3389-.2803-.5508-.3711-.2109-.0908-.4375-.1367-.6777-.1367h-.7998c-.2402,0-.4668.0459-.6777.1367s-.3945.2148-.5508.3711c-.1562.1553-.2793.3398-.3711.5508-.0908.2109-.1357.4375-.1357.6777v4.6416c0,.2412.0449.4668.1357.6787.0918.2109.2148.3945.3711.5508s.3398.2793.5508.3701c.2109.0918.4375.1367.6777.1367h.7998c.2402,0,.4668-.0449.6777-.1367.2119-.0908.3955-.2139.5508-.3701.1562-.1562.2803-.3398.3711-.5508.0908-.2119.1367-.4375.1367-.6787v-4.6416Z" style="fill:#663715;"/><path d="m109.4821,264.9755l-.6631-.9951c-.2734.3574-.6152.6455-1.0244.8633-.4092.2178-.8584.3262-1.3457.3262h-.3027c-.4033,0-.7832-.0762-1.1406-.2285-.3574-.1533-.6699-.3623-.9365-.6289s-.4766-.5791-.6289-.9365c-.1523-.3574-.2295-.7383-.2295-1.1406v-.0977c0-.4033.0771-.7842.2295-1.1416s.3623-.6689.6289-.9355.5791-.4766.9365-.6299c.3574-.1523.7373-.2285,1.1406-.2285h2.5361v-1.541c0-.2402-.0459-.4668-.1367-.6777s-.2148-.3955-.3711-.5508c-.1553-.1562-.3389-.2803-.5508-.3711-.2109-.0908-.4375-.1367-.6777-.1367h-.7021c-.2402,0-.4668.0459-.6777.1367s-.3945.2148-.5508.3711c-.1562.1553-.2793.3398-.3711.5508-.0908.2109-.1357.4375-.1357.6777v.3604l-1.2002-.1943v-.0977c0-.4033.0762-.7832.2295-1.1416.1523-.3574.3623-.6689.6289-.9355s.5791-.4766.9365-.6289c.3574-.1533.7373-.2295,1.1406-.2295h.7021c.4033,0,.7832.0762,1.1416.2295.3574.1523.6689.3623.9355.6289s.4766.5781.6289.9355c.1533.3584.2295.7383.2295,1.1416v7.2461h-.3994Zm-.7998-4.8379h-2.5361c-.2402,0-.4668.0459-.6777.1367-.2109.0918-.3945.2168-.5508.376s-.2793.3447-.3711.5557c-.0908.2109-.1357.4375-.1357.6777v.4189c0,.2412.0449.4668.1357.6787.0918.2109.2148.3945.3711.5508s.3398.2793.5508.3701c.2109.0918.4375.1367.6777.1367h.7998c.2402,0,.4668-.0449.6777-.1367.2119-.0908.3955-.2139.5508-.3701.1562-.1562.2803-.3398.3711-.5508.0908-.2119.1367-.4375.1367-.6787v-2.165Z" style="fill:#663715;"/><path d="m118.2741,264.9755c-.3643,0-.707-.0684-1.0283-.2051-.3223-.1367-.6016-.3252-.8389-.5654s-.4258-.5205-.5654-.8389c-.1406-.3184-.21-.6602-.21-1.0244v-6.2119h-1.7949v-1.1406h1.7949v-2.3994l1.1992-.1953v2.5947h2.5361v1.1406h-2.5361v6.2705c0,.2021.0381.3887.1123.5615.0752.1719.1768.3232.3076.4531.1299.1299.2822.2324.458.3066.1758.0752.3643.1123.5654.1123h1.0928v1.1416h-1.0928Z" style="fill:#663715;"/><path d="m129.3981,264.9755v-7.3145c0-.2402-.0459-.4668-.1367-.6777s-.2148-.3955-.3711-.5508c-.1553-.1562-.3389-.2803-.5508-.3711-.2109-.0908-.4375-.1367-.6777-.1367h-.7998c-.2402,0-.4668.0459-.6777.1367s-.3945.2148-.5508.3711c-.1562.1553-.2793.3398-.3711.5508-.0908.2109-.1357.4375-.1357.6777v7.3145h-1.2002v-13.9854h1.2002v4.8369c.2725-.3242.6006-.5781.9844-.7607.3838-.1816.7998-.2725,1.249-.2725h.3018c.4033,0,.7832.0762,1.1416.2295.3574.1523.6689.3623.9355.6289s.4766.5781.6289.9355c.1533.3584.2295.7383.2295,1.1416v7.2461h-1.1992Z" style="fill:#663715;"/><path d="m135.6559,252.5898v-1.5996h1.3945v1.5996h-1.3945Zm.0977,12.3857v-9.9863h1.1992v9.9863h-1.1992Z" style="fill:#663715;"/><path d="m148.5494,263.3759c-.1523.3574-.3623.6699-.6289.9365-.2666.2666-.5781.4756-.9355.6289-.3584.1523-.7383.2285-1.1416.2285h-.7998c-.4033,0-.7832-.0762-1.1406-.2285-.3574-.1533-.6699-.3623-.9365-.6289-.2666-.2666-.4766-.5791-.6289-.9365s-.2295-.7383-.2295-1.1406v-4.5059c0-.4033.0771-.7832.2295-1.1416.1523-.3574.3623-.6689.6289-.9355.2666-.2666.5791-.4766.9365-.6289.3574-.1533.7373-.2295,1.1406-.2295h.7998c.4033,0,.7832.0762,1.1416.2295.3574.1523.6689.3623.9355.6289.2666.2666.4766.5781.6289.9355.1533.3584.2295.7383.2295,1.1416v.3994l-1.1992.1953v-.6631c0-.2402-.0459-.4668-.1367-.6777s-.2148-.3955-.3711-.5508c-.1553-.1562-.3389-.2803-.5508-.3711-.2109-.0908-.4375-.1367-.6777-.1367h-.7998c-.2402,0-.4668.0459-.6777.1367s-.3945.2148-.5508.3711c-.1562.1553-.2793.3398-.3711.5508-.0908.2109-.1357.4375-.1357.6777v4.6416c0,.2412.0449.4668.1357.6787.0918.2109.2148.3945.3711.5508s.3398.2793.5508.3701c.2109.0918.4375.1367.6777.1367h.7998c.2402,0,.4668-.0449.6777-.1367.2119-.0908.3955-.2139.5508-.3701.1562-.1562.2803-.3398.3711-.5508.0908-.2119.1367-.4375.1367-.6787v-.6631l1.1992.1953v.4004c0,.4023-.0762.7832-.2295,1.1406Z" style="fill:#663715;"/><path d="m171.028,264.9755v-7.3145c0-.2402-.0459-.4668-.1367-.6777s-.2148-.3955-.3711-.5508c-.1553-.1562-.3398-.2803-.5508-.3711s-.4375-.1367-.6777-.1367h-.5947c-.2402,0-.4668.0459-.6777.1367-.2119.0908-.3965.2148-.5557.3711-.1602.1553-.2852.3398-.376.5508s-.1367.4375-.1367.6777v7.3145h-1.1895v-7.3145c0-.2402-.0459-.4668-.1367-.6777s-.2158-.3955-.375-.5508c-.1592-.1562-.3447-.2803-.5557-.3711-.2119-.0908-.4375-.1367-.6787-.1367h-.5947c-.2402,0-.4668.0459-.6777.1367s-.3945.2148-.5508.3711c-.1562.1553-.2793.3398-.3711.5508-.0908.2109-.1357.4375-.1357.6777v7.3145h-1.2002v-9.9863h.4004l.6533,1.0137c.2734-.3701.6162-.6641,1.0283-.8828.4131-.2178.8633-.3262,1.3516-.3262h.0967c.5664,0,1.0762.1396,1.5312.4189.4551.2803.8066.6504,1.0537,1.1123.123-.2275.2764-.4355.458-.624.1826-.1885.3838-.3496.6045-.4834.2217-.1328.4619-.2373.7217-.3115.2607-.0752.5303-.1123.8096-.1123h.0977c.4033,0,.7832.0762,1.1416.2295.3574.1523.6689.3623.9355.6289s.4766.5781.6289.9355c.1533.3584.2295.7383.2295,1.1416v7.2461h-1.1992Z" style="fill:#663715;"/><path d="m183.4235,263.3759c-.1523.3574-.3623.6699-.6289.9365s-.5781.4756-.9355.6289c-.3584.1523-.7383.2285-1.1416.2285h-.7998c-.4033,0-.7832-.0762-1.1406-.2285-.3574-.1533-.6699-.3623-.9365-.6289s-.4766-.5791-.6289-.9365-.2295-.7383-.2295-1.1406v-4.5059c0-.4033.0771-.7832.2295-1.1416.1523-.3574.3623-.6689.6289-.9355s.5791-.4766.9365-.6289c.3574-.1533.7373-.2295,1.1406-.2295h.7998c.4033,0,.7832.0762,1.1416.2295.3574.1523.6689.3623.9355.6289s.4766.5781.6289.9355c.1533.3584.2295.7383.2295,1.1416v2.3506h-5.4707v2.2227c0,.2412.0449.4668.1357.6787.0918.2109.2148.3945.3711.5508s.3398.2793.5508.3701c.2109.0918.4375.1367.6777.1367h.7998c.2402,0,.4668-.0449.6777-.1367.2119-.0908.3955-.2139.5508-.3701.1562-.1562.2803-.3398.3711-.5508.0908-.2119.1367-.4375.1367-.6787v-.6631l1.1992.1953v.4004c0,.4023-.0762.7832-.2295,1.1406Zm-.9697-5.7148c0-.2402-.0459-.4668-.1367-.6777s-.2148-.3955-.3711-.5508c-.1553-.1562-.3389-.2803-.5508-.3711-.2109-.0908-.4375-.1367-.6777-.1367h-.7998c-.2402,0-.4668.0459-.6777.1367s-.3945.2148-.5508.3711c-.1562.1553-.2793.3398-.3711.5508-.0908.2109-.1357.4375-.1357.6777v1.4824h4.2715v-1.4824Z" style="fill:#663715;"/><path d="m194.6803,264.9755l-.6631-1.0146c-.2734.3711-.6152.665-1.0244.8828s-.8584.3262-1.3457.3262h-.3027c-.4033,0-.7832-.0762-1.1406-.2285-.3574-.1533-.6699-.3623-.9365-.6289s-.4766-.5791-.6289-.9365-.2295-.7383-.2295-1.1406v-4.5059c0-.4033.0771-.7832.2295-1.1416.1523-.3574.3623-.6689.6289-.9355s.5791-.4766.9365-.6289c.3574-.1533.7373-.2295,1.1406-.2295h.3027c.4482,0,.8643.0908,1.248.2725.3838.1826.7119.4365.9854.7607v-4.8369h1.1992v13.9854h-.3994Zm-.7998-7.3145c0-.2402-.0459-.4668-.1367-.6777s-.2148-.3955-.3711-.5508c-.1553-.1562-.3389-.2803-.5508-.3711-.2109-.0908-.4375-.1367-.6777-.1367h-.7998c-.2402,0-.4668.0459-.6777.1367s-.3945.2148-.5508.3711c-.1562.1553-.2793.3398-.3711.5508-.0908.2109-.1357.4375-.1357.6777v4.6416c0,.2412.0449.4668.1357.6787.0918.2109.2148.3945.3711.5508s.3398.2793.5508.3701c.2109.0918.4375.1367.6777.1367h.7998c.2402,0,.4668-.0449.6777-.1367.2119-.0908.3955-.2139.5508-.3701.1562-.1562.2803-.3398.3711-.5508.0908-.2119.1367-.4375.1367-.6787v-4.6416Z" style="fill:#663715;"/><path d="m200.1373,252.5898v-1.5996h1.3945v1.5996h-1.3945Zm.0977,12.3857v-9.9863h1.1992v9.9863h-1.1992Z" style="fill:#663715;"/><path d="m213.0309,263.3759c-.1523.3574-.3623.6699-.6289.9365-.2666.2666-.5781.4756-.9355.6289-.3584.1523-.7383.2285-1.1416.2285h-.7998c-.4033,0-.7832-.0762-1.1406-.2285-.3574-.1533-.6699-.3623-.9365-.6289s-.4766-.5791-.6289-.9365c-.1523-.3574-.2295-.7383-.2295-1.1406v-4.5059c0-.4033.0771-.7832.2295-1.1416.1523-.3574.3623-.6689.6289-.9355s.5791-.4766.9365-.6289c.3574-.1533.7373-.2295,1.1406-.2295h.7998c.4033,0,.7832.0762,1.1416.2295.3574.1523.6689.3623.9355.6289.2666.2666.4766.5781.6289.9355.1533.3584.2295.7383.2295,1.1416v.3994l-1.1992.1953v-.6631c0-.2402-.0459-.4668-.1367-.6777s-.2148-.3955-.3711-.5508c-.1553-.1562-.3389-.2803-.5508-.3711-.2109-.0908-.4375-.1367-.6777-.1367h-.7998c-.2402,0-.4668.0459-.6777.1367s-.3945.2148-.5508.3711c-.1562.1553-.2793.3398-.3711.5508-.0908.2109-.1357.4375-.1357.6777v4.6416c0,.2412.0449.4668.1357.6787.0918.2109.2148.3945.3711.5508s.3398.2793.5508.3701c.2109.0918.4375.1367.6777.1367h.7998c.2402,0,.4668-.0449.6777-.1367.2119-.0908.3955-.2139.5508-.3701.1562-.1562.2803-.3398.3711-.5508.0908-.2119.1367-.4375.1367-.6787v-.6631l1.1992.1953v.4004c0,.4023-.0762.7832-.2295,1.1406Z" style="fill:#663715;"/><path d="m218.319,252.5898v-1.5996h1.3945v1.5996h-1.3945Zm.0977,12.3857v-9.9863h1.1992v9.9863h-1.1992Z" style="fill:#663715;"/><path d="m230.2428,264.9755v-7.3145c0-.2402-.0459-.4668-.1367-.6777s-.2148-.3955-.3711-.5508c-.1553-.1562-.3389-.2803-.5508-.3711-.2109-.0908-.4375-.1367-.6777-.1367h-.7998c-.2402,0-.4668.0459-.6777.1367s-.3945.2148-.5508.3711c-.1562.1553-.2793.3398-.3711.5508-.0908.2109-.1357.4375-.1357.6777v7.3145h-1.2002v-9.9863h.4004l.6533,1.0137c.2734-.3701.6162-.6641,1.0283-.8828.4131-.2178.8633-.3262,1.3516-.3262h.3018c.4033,0,.7832.0762,1.1416.2295.3574.1523.6689.3623.9355.6289s.4766.5781.6289.9355c.1533.3584.2295.7383.2295,1.1416v7.2461h-1.1992Z" style="fill:#663715;"/><path d="m242.6393,263.3759c-.1523.3574-.3623.6699-.6289.9365s-.5781.4756-.9355.6289c-.3584.1523-.7383.2285-1.1416.2285h-.7998c-.4033,0-.7832-.0762-1.1406-.2285-.3574-.1533-.6699-.3623-.9365-.6289s-.4766-.5791-.6289-.9365-.2295-.7383-.2295-1.1406v-4.5059c0-.4033.0771-.7832.2295-1.1416.1523-.3574.3623-.6689.6289-.9355s.5791-.4766.9365-.6289c.3574-.1533.7373-.2295,1.1406-.2295h.7998c.4033,0,.7832.0762,1.1416.2295.3574.1523.6689.3623.9355.6289s.4766.5781.6289.9355c.1533.3584.2295.7383.2295,1.1416v2.3506h-5.4707v2.2227c0,.2412.0449.4668.1357.6787.0918.2109.2148.3945.3711.5508s.3398.2793.5508.3701c.2109.0918.4375.1367.6777.1367h.7998c.2402,0,.4668-.0449.6777-.1367.2119-.0908.3955-.2139.5508-.3701.1562-.1562.2803-.3398.3711-.5508.0908-.2119.1367-.4375.1367-.6787v-.6631l1.1992.1953v.4004c0,.4023-.0762.7832-.2295,1.1406Zm-.9697-5.7148c0-.2402-.0459-.4668-.1367-.6777s-.2148-.3955-.3711-.5508c-.1553-.1562-.3389-.2803-.5508-.3711-.2109-.0908-.4375-.1367-.6777-.1367h-.7998c-.2402,0-.4668.0459-.6777.1367s-.3945.2148-.5508.3711c-.1562.1553-.2793.3398-.3711.5508-.0908.2109-.1357.4375-.1357.6777v1.4824h4.2715v-1.4824Z" style="fill:#663715;"/><path d="m23.1649,140.1409l2.4169-.9495c.9726-.3821,1.9559.3955,1.9018,1.4391-.3634,7.0147,5.1605,14.1861,11.3309,14.1861,9.9182,0,14.1784-11.4494,6.7893-19.0376-2.4625-2.5299-12.3807-8.6537-14.5116-10.8504-6.3895-6.5236-2.2626-16.3085,6.7227-16.3085,5.3997,0,9.5557,3.6123,9.8438,8.4357.0323.54-.2934,1.0415-.773,1.2917l-1.7001.8867c-.9387.4896-2.0301-.1767-2.091-1.2336-.255-4.4223-2.2523-7.1171-5.2797-7.1171-4.8583,0-5.9896,6.3237-1.9294,10.6505,1.1979,1.2646,12.6473,8.9194,15.443,11.6485,10.1182,9.8516,2.1293,23.8976-12.514,23.8976-9.0443,0-16.2325-6.8598-16.5676-15.5771-.023-.5978.3612-1.1432.918-1.3619Z" style="fill:#663715;"/><path d="m69.6874,133.2331l-13.5136-21.4892c-.599-.9525.0856-2.1918,1.2108-2.1918h2.7477c.4904,0,.9466.2512,1.2088.6657l11.5801,18.3048c.554.8758,1.8265.8901,2.4001.027l12.2-18.3587c.2651-.3989.7123-.6387,1.1913-.6387h2.362l-14.6062,22.0061c-.1556.2345-.2386.5096-.2386.791v22.3681c0,.79-.6404,1.4304-1.4304,1.4304h-3.4621c-.79,0-1.4304-.6404-1.4304-1.4304v-20.7228c0-.2694-.0761-.5334-.2195-.7614Z" style="fill:#663715;"/><path d="m95.8712,110.9825c0-.79.6404-1.4304,1.4304-1.4304h12.4165c15.5763,0,24.1633,8.6529,24.1633,23.7635,0,14.7108-8.3871,22.8321-24.2966,22.8321h-12.2832c-.79,0-1.4304-.6404-1.4304-1.4304v-43.7349Zm11.6493,42.9685c14.445,0,19.7698-5.5914,19.7698-20.6354,0-15.3764-5.5248-21.5009-19.6366-21.5009h-3.7612c-.79,0-1.4304.6404-1.4304,1.4304v39.2756c0,.79.6404,1.4304,1.4304,1.4304h3.6279Z" style="fill:#663715;"/><path d="m176.6231,110.9825v43.7349c0,.79-.6404,1.4304-1.4304,1.4304h-4.6876c-.4996,0-.963-.2607-1.2224-.6876l-22.4906-37.016c-.7511-1.2362-2.6528-.7038-2.6528.7427v35.5305c0,.79-.6404,1.4304-1.4304,1.4304h-.0683c-.79,0-1.4304-.6404-1.4304-1.4304v-43.7349c0-.79.6404-1.4304,1.4304-1.4304h4.689c.4997,0,.9632.2608,1.2226.6879l22.5571,37.1455c.7509,1.2366,2.6529.7043,2.6529-.7424v-35.6606c0-.79.6404-1.4304,1.4304-1.4304h0c.79,0,1.4304.6404,1.4304,1.4304Z" style="fill:#663715;"/><path d="m209.7506,153.8844v2.2634h-24.6038c-.6598,0-1.1947-.6404-1.1947-1.4304v-43.7349c0-.7899.5349-1.4304,1.1947-1.4304h23.3806v2.2626h-18.0425c-.6598,0-1.1947.6404-1.1947,1.4304v17.1649c0,.7941.5403,1.4363,1.2037,1.4304l13.6403-.1225v2.2634l-13.6583.1226c-.6562.0059-1.1857.6446-1.1857,1.4304v16.9198c0,.7899.5349,1.4304,1.1947,1.4304h19.2657Z" style="fill:#663715;"/><path d="m227.9388,133.2331l-13.5136-21.4892c-.599-.9525.0856-2.1918,1.2108-2.1918h2.7477c.4904,0,.9466.2512,1.2088.6657l11.5801,18.3048c.554.8758,1.8265.8901,2.4001.027l12.0516-18.1354c.3578-.5384.9613-.862,1.6077-.862h2.094l-14.6062,22.0061c-.1556.2345-.2386.5096-.2386.791v22.3681c0,.79-.6404,1.4304-1.4304,1.4304h-3.4621c-.79,0-1.4304-.6404-1.4304-1.4304v-20.7228c0-.2694-.0761-.5334-.2195-.7614Z" style="fill:#663715;"/><path d="m94.4138,182.5525v43.7349c0,.79-.6404,1.4304-1.4304,1.4304h-3.4637c-.79,0-1.4304-.6404-1.4304-1.4304v-19.3058c0-.79-.6404-1.4304-1.4304-1.4304h-19.2383c-.79,0-1.4304.6404-1.4304,1.4304v19.3058c0,.79-.6404,1.4304-1.4304,1.4304h-3.4637c-.79,0-1.4304-.6404-1.4304-1.4304v-43.7349c0-.79.6404-1.4304,1.4304-1.4304h3.4637c.79,0,1.4304.6404,1.4304,1.4304v19.305c0,.79.6404,1.4304,1.4304,1.4304h19.2383c.79,0,1.4304-.6404,1.4304-1.4304v-19.305c0-.79.6404-1.4304,1.4304-1.4304h3.4637c.79,0,1.4304.6404,1.4304,1.4304Z" style="fill:#663715;"/><path d="m109.3968,182.5525v43.7349c0,.79-.6404,1.4304-1.4304,1.4304h-3.4637c-.79,0-1.4304-.6404-1.4304-1.4304v-43.7349c0-.79.6404-1.4304,1.4304-1.4304h3.4637c.79,0,1.4304.6404,1.4304,1.4304Z" style="fill:#663715;"/><path d="m152.6668,183.3847h-13.6794c-.79,0-1.4304.6404-1.4304,1.4304v41.4723c0,.79-.6404,1.4304-1.4304,1.4304h-3.4637c-.79,0-1.4304-.6404-1.4304-1.4304v-41.4723c0-.79-.6404-1.4304-1.4304-1.4304h-13.7461v-2.2626h36.6107v2.2626Z" style="fill:#663715;"/><path d="m192.6129,183.3847h-13.6794c-.79,0-1.4304.6404-1.4304,1.4304v41.4723c0,.79-.6404,1.4304-1.4304,1.4304h-3.4637c-.79,0-1.4304-.6404-1.4304-1.4304v-41.4723c0-.79-.6404-1.4304-1.4304-1.4304h-13.7461v-2.2626h36.6107v2.2626Z" style="fill:#663715;"/><path d="m271.572,182.5525v43.7349c0,.79-.6404,1.4304-1.4304,1.4304h-4.6876c-.4996,0-.963-.2607-1.2224-.6876l-22.4906-37.016c-.7511-1.2362-2.6528-.7038-2.6528.7427v35.5305c0,.79-.6404,1.4304-1.4304,1.4304h-.0683c-.79,0-1.4304-.6404-1.4304-1.4304v-43.7349c0-.79.6404-1.4304,1.4304-1.4304h4.689c.4997,0,.9632.2608,1.2226.688l22.5555,37.1452c.7509,1.2366,2.653.7043,2.653-.7424v-35.6604c0-.79.6404-1.4304,1.4304-1.4304h.0016c.79,0,1.4304.6404,1.4304,1.4304Z" style="fill:#663715;"/><path d="m226.6941,225.3921v2.2634h-24.6038c-.6598,0-1.1947-.6404-1.1947-1.4304v-43.7349c0-.7899.5349-1.4304,1.1947-1.4304h23.3806v2.2626h-18.0425c-.6598,0-1.1947.6404-1.1947,1.4304v17.1649c0,.7941.5403,1.4363,1.2037,1.4304l13.6403-.1225v2.2634l-13.6583.1226c-.6562.0059-1.1857.6446-1.1857,1.4304v16.9198c0,.7899.5349,1.4304,1.1947,1.4304h19.2657Z" style="fill:#663715;"/><path d="m53.1067,182.5078c0,.1665-.0333.3162-.0833.4827l-15.1795,43.7742c-.1997.5658-.7489.9487-1.3482.9487h-3.9113c-.5992,0-1.1318-.3829-1.3315-.9487l-4.727-13.6483-4.7269,13.6483c-.1997.5658-.7323.9487-1.3482.9487h-3.9114c-.5992,0-1.1318-.3829-1.3315-.9487L.0782,182.9906c-.3162-.9155.3662-1.8641,1.3316-1.8641h3.6616c.6159,0,1.1485.3828,1.3482.9486l12.633,36.7005c.4494,1.265,2.2469,1.265,2.6797,0l3.3622-9.8201-8.9712-25.9649c-.3162-.9155.3662-1.8641,1.3315-1.8641h3.6617c.6158,0,1.1485.3828,1.3482.9486l5.942,17.2435,1.448,4.2276,5.243,15.2295c.4493,1.265,2.2469,1.265,2.6797,0l12.583-36.7005c.1997-.5658.7323-.9486,1.3315-.9486.8155,0,1.4148.649,1.4148,1.3814Z" style="fill:#663715;"/><path d="m103.3161,37.3966c-1.5797,1.272-3.2343,2.2092-4.079,3.9945-.0932.2168-.2631.6653-.3407.8891-.6343,1.5089-.4454,2.904-.1941,4.6759.1442,1.0732.3692,1.9633.4932,3.0509.0129,1.6829.014,3.2662.5222,4.8888.484,1.3926.9641,3.124.9373,4.6617-.0025.5015.0916,1.0281.1143,1.4909.2057,2.2262-1.0133,4.7355.3683,6.5901-.0001,0,.5076.9077.5076.9077,1.9106,4.3938,3.596,8.2647,8.8345,9.2655,3.8167.7141,7.895.4493,11.5955-.7848,1.2091-.3841,2.4509-1.0334,3.9551-1.3398,1.485-.2748,2.8832-.2005,4.2093-.2309,2.1541-.0457,4.1281.2721,6.2883.6365,1.1879.273,1.784.9874,2.7903,1.2325,1.4735.3134,3.4211.9074,4.8722,1.1587.6862.0569,1.4297.2466,2.0772.4176,1.3722.433,2.4189.3076,3.8591.2571.6646-.0327,1.3304.1794,2.008.1457,1.244-.0804,2.7216-.435,4.0266-.4437,2.0068-.0953,3.9413-.3043,5.8369-.9882,0,0,1.9736-.5791,1.9736-.5791,3.2538-.9663,5.2144-3.776,6.5364-6.7693,2.4755-4.5335,3.8814-10.2607,2.3948-15.2955-.4227-1.2222-1.0687-2.3805-1.7212-3.5934-.6769-1.2407-.9793-2.609-1.3801-3.9442-.3135-.9543-.6742-2.0968-.6757-3.1655-.0474-1.6787-.0092-3.4256-.1271-5.064-.4453-4.0502.4097-8.1685.2787-12.2558.0213-2.1623.0391-4.2309-.6038-6.2623-.2859-.8682-.8713-1.64-1.3811-2.4105-.4719-.6844-.7968-1.6279-1.2408-2.1051-.7905-1.085-2.6098-1.5958-4.0043-2.1794-1.4929-.6191-3.1492-1.1142-4.6934-1.5432-1.319-.3697-2.3401.0934-3.7805.1108-1.563.1183-3.1398-.9101-4.2726-1.7786-1.4501-.9286-2.8116-2.0174-4.0912-3.1367-.4962-.433-.9523-.6126-1.5568-.9268-.9404-.5462-1.5163-.7691-2.7227-1.1571-.6767-.3072-1.1265-.5381-1.787-.7193-1.3204-.3827-2.5246-.4919-3.9538-.7916-2.8861-.9984-5.5281-2.2542-8.6079-2.3091-4.6809-.1836-8.5442,4.5099-9.9792,8.5778-.2134.9369-.5476,1.9146-.6601,2.8503-.0917,1.0311-.4508,2.1429-.6982,3.0762-.2501.8796-.3545,1.9671-.4559,2.8929-.442,2.4525-.9261,4.8394-1.9279,7.1289-.6,1.2512-1.4836,2.3779-2.2256,3.4587-1.6572,3.1168-4.7332,5.2511-7.319,7.4153h0Zm-.8871-1.1214c2.5324-2.1571,5.3219-4.0853,6.8789-7.0009.3082-.5811.5959-.8306.9068-1.2995.4424-.6786.9378-1.4174,1.2455-2.1015.8711-2.0722,1.3082-4.4315,1.6823-6.6329.1031-1.0135.1889-2.1457.4511-3.1464.5288-1.6963.6019-3.3142,1.0324-4.9885.4692-2.4865,1.8422-4.7362,3.4188-6.6341C119.9369,2.0208,122.8898.0893,126.094.0001c2.683-.0094,5.3544.6427,7.8198,1.6603,1.3292.618,2.2657.7742,3.7098.9936,1.3414.2099,2.8748.6412,4.0798,1.2599,1.3255.3961,3.0612,1.2171,4.3398,2.0366,1.4698,1.1818,2.8707,2.433,4.4564,3.4178,1.0232.7117,1.8097,1.4295,3.0464,1.3928.902-.0027,2.0794-.3308,3.1281-.2452,2.1677.3159,4.1289,1.1091,6.1485,1.8831,2.0232.7756,4.3921,1.6571,5.4118,3.7881.724,1.6088,2.0427,2.9387,2.4221,4.7106,1.021,4.78.3738,9.7188-.0503,14.5181-.1538,2.5906.1088,5.4601-.0355,8.0783-.1961,2.0361.5248,3.8231.9989,5.7916.5658,1.9843,1.7832,3.5619,2.4007,5.5907,1.4146,4.7422.339,9.8946-1.5777,14.3275-1.9098,3.9035-3.4977,7.7779-8.0601,9.2158-.752.2329-2.1861.6594-2.9109.9217-1.6703.5509-3.4411.6866-5.1701.8203-1.7434.0147-3.4296.7081-5.2165.4486-.9948-.1535-1.8636.0494-2.9529.0369-1.2906.0004-2.3806-.4617-3.5888-.6334-1.4576-.0972-3.1516-.6888-4.5635-.9476-.6631-.1382-1.5296-.3176-2.1135-.6449-1.3191-.8181-2.107-.9135-3.5974-1.0339-1.2857-.22-2.6365-.3134-3.9385-.2694-1.3849.04-2.725.0024-3.9169.2427-1.1698.2401-2.3688.8621-3.7376,1.3277-4.0168,1.3664-8.3436,1.7378-12.5314.9209-5.7533-1.1653-7.979-5.1844-10.0139-10.24-.3359-.6016-.6906-1.2258-.9779-1.8885-.8873-2.1056.099-4.2103-.0038-6.3154-.0106-.4064-.1124-1.1692-.1026-1.5578.034-1.5632-.3705-2.769-.839-4.2856-.5032-1.6576-.5554-3.4855-.5282-5.2025-.0996-.9402-.3482-2.0383-.4589-2.986-.2388-1.5746-.4395-3.6693.3191-5.3596.0911-.254.2903-.7611.3998-1.0087.9073-1.9971,2.9642-3.2712,4.5397-4.49h0Z" style="fill:#663715;"/><path d="m123.7355,6.6541l-2.8549,1.9063c-.2744.0817-.5487.2008-.7256.4248-.1777.2166-.2483.4979-.3049.7804-.5283,1.6463-1.276,3.2495-1.3325,5.0061-.0385,2.3165-.2443,4.6249-.1906,6.9438.1215,2.3426-.4557,4.6555-1.1622,6.8679-1.0063,2.7659-2.6811,5.2353-4.6856,7.3662-.8675.7753-1.7714,1.4816-2.6007,2.3165-1.2681,1.1555-2.7385,2.1612-3.7442,3.5323-1.4359,1.834-1.33,4.2544-1.315,6.4762.0465,2.3414,1.6855,4.2595,2.0362,6.56.2428,2.336.463,4.6557.2841,7.0151-.1414,1.1477-.3968,2.3136-.074,3.3425.1784.5097.5021.9837.8056,1.4845,3.1531,5.9238,6.5686,7.0802,12.6499,4.2122,1.0318-.5038,2.03-1.1302,3.1651-1.471,0,0,1.6826-.446,1.6826-.446,1.6622-.5703,3.4611-.4999,5.1629-.7328,1.145-.2107,2.3573-.221,3.4921.0627,2.2325.6457,4.6282.9193,6.6196,2.1605.9879.6103,2.2512.6869,3.1652,1.4428.4086.3774,1.039.5344,1.5171.7537.5358.22,1.0671.4409,1.6105.5968,2.2053.4591,4.5818.6656,6.8152.2728,1.0986-.2077,2.2184-.6706,3.4035-.7585,2.2359-.3144,4.5916-.6498,6.4901-1.9343,2.8173-1.8982,4.5746-5.1736,5.0472-8.5041.1933-1.1087.03-2.2209-.1093-3.381-.156-1.1344-.0571-2.2696-.5706-3.3067,0,0-1.5355-3.1015-1.5355-3.1015-1.3082-2.1484-.4403-4.5948-1.1703-6.8283-.4658-1.1084-.6044-2.359-.5338-3.5357.0741-1.0229.2089-2.4561.3443-3.483.1462-1.7861.7511-3.3475.6336-5.123-.1185-2.8168.3509-5.9052-.4538-8.5389-.4599-1.6985-1.9047-2.7194-3.1044-3.8871-.3019-.3969-.9416-.7514-1.3054-1.0817-1.9865-1.7169-4.3913-2.6139-6.9527-3.014-1.1295-.2165-2.1952-.7151-3.3438-.698-.9267-.0404-1.7458-.0386-2.6735-.413-.5815-.3318-.9085-.8697-1.2398-1.3318-.5442-.6633-.7484-1.5535-1.493-2.0621-1.1191-.8667-2.1671-1.9477-3.3089-2.7758-.4745-.3209-.9925-.4848-1.5709-.6125-1.1351-.305-2.1871-.8069-3.3065-1.0638-2.2561-.7124-4.6168-.2068-6.8874-.7904-1.1259-.3522-2.0304-1.1725-3.1674-1.3957-1.1158-.1585-2.3953-.1732-3.2076.7466h0Zm-.0431-.0532c.8107-.9261,2.1305-.9493,3.2683-.785,1.1721.225,2.0876,1.044,3.1848,1.3744,2.2462.5528,4.6492.0593,6.8928.7214,1.1493.2433,2.2177.7295,3.3282,1.0055,1.1804.1728,2.196.9132,3.0355,1.7124.8463.7826,1.8847,1.4094,2.674,2.2737.5961.8984,1.1323,2.0796,2.0508,2.6469.9709.4055,2.2952.2275,3.3647.3654,1.7128.4078,3.4309.6935,5.1091,1.1838,2.3126.5123,4.3035,2.0702,6.0576,3.5729.8099.8599,1.8674,1.4717,2.4928,2.5083,1.6912,2.3743,1.2433,5.9105,1.3056,8.652-.0186,1.0666.062,2.454-.0651,3.5177-.168,1.2044-.4839,2.2725-.5613,3.4211-.2045,2.2846-.7456,4.6349.1581,6.7163.7677,2.1671-.1353,4.7024,1.1005,6.7483-.0001,0,1.5335,3.1378,1.5335,3.1378.5349,1.083.4677,2.3508.6063,3.5021.1308,1.1321.303,2.3527.0906,3.5426-.6433,4.6365-3.886,9.2454-8.6538,10.2251-2.3088.5237-4.5418.6456-6.8367,1.3081-2.3331.3796-4.6978.1459-6.993-.3487-.5703-.1685-1.1095-.3985-1.6435-.6223-.5115-.2106-1.1643-.4547-1.5767-.8014-.9093-.7536-2.1356-.8196-3.1235-1.447-.9917-.6378-2.0203-1.0343-3.169-1.2744-2.2449-.559-4.4509-1.5249-6.7598-.9896-1.7443.2252-3.4627.1244-5.1368.7115,0,0-1.6755.4539-1.6755.4539-1.0934.3338-2.0785.9568-3.1217,1.4749-6.1768,2.9523-9.7994,1.8259-13.1171-4.2112-.3004-.4845-.6495-.9703-.8658-1.5557-.3901-1.2179-.109-2.4202.0042-3.549.1444-2.2394-.121-4.6047-.3553-6.8502-.3826-2.3078-2.0386-4.2341-2.0762-6.6423-.0469-2.3288-.1073-4.9237,1.4443-6.8518,1.0791-1.4415,2.5429-2.4152,3.8479-3.5841.8165-.8052,1.7366-1.5283,2.6082-2.2837,1.9884-2.0374,3.6883-4.4555,4.7088-7.1172.7365-2.1738,1.344-4.4315,1.2639-6.7478-.017-2.3222.2462-4.6316.2924-6.9512.0631-1.7509.8316-3.3932,1.3674-5.0209.0581-.2799.1334-.5827.3293-.8184.1652-.246.5432-.3823.7497-.4395,0,0,2.8615-1.8845,2.8615-1.8845h0Z" style="fill:#663715;"/><path d="m124.7261,11.7728s-1.9666,3.4345-1.9666,3.4345c-.2378.2405-.4883.4893-.5864.8056-.1019.2997-.0839.6267.0441.925.0331.4936.0998,1.0547.0473,1.5545-.1004,1.029-.1154,1.9222.1582,2.9327.2885,1.4882.4565,2.9941.6036,4.5001.5702,5.3208-3.6178,9.4914-7.108,12.9352-.7458.6868-1.529,1.3378-2.3641,1.9239-.8208.5428-1.6426,1.0119-2.132,1.9037-.9829,1.6354-1.541,3.6503-1.3396,5.5568.0828.9478.6061,1.7979.8821,2.8315.2419,1.0111.3665,1.9701.7336,2.8945.3298.9455.6676,1.9322.7386,2.9775.1372,2.0606-.7131,3.9749-.8153,5.9864-.1876,1.4541.4706,2.9411,1.9011,3.4589.6423.1807,1.357.686,2.0402.5998.7158-.2178,1.0634-.9145,1.7063-1.3429.8876-.6131,2.0047-.4917,3.0039-.5297,1.0227.0006,1.8646-.6222,2.8318-.8565.9764-.2843,1.9763-.4358,2.9636-.606,1.9927-.3302,4.0328-.2561,6.0332-.1249,1.4823.0285,3.0578-.0817,4.507.3759,2.5057.3933,4.7438,1.7235,6.918,2.9114,4.2753,1.4433,8.9274,1.0291,13.3188.3356.9397-.2077,2.0465-.0602,2.9746-.2324.9404-.2349,1.8247-.8617,2.8127-1.057.4879-.1155.9621-.2248,1.349-.4479,1.5238-1.021,1.3897-3.6145.347-5.0077-1.1609-1.591-2.7044-3.0048-3.6994-4.7704-1.5687-2.7693-1.403-5.9346-1.5596-8.9706.0555-2.024-.0167-4.0804.4998-6.0623.2376-.9829.5088-1.9413.6309-2.906.1906-1.681.0804-4.247.1756-5.9797.0751-3.4849-2.5502-6.4581-5.4269-8.1079-.4398-.3477-.7487-.758-1.0966-1.0526-.6741-.5827-1.6969-.8246-2.6084-1.3036-1.5116-.7213-3.3154-.7859-4.9166-.3208-.7523.2759-1.9001.5518-2.4067-.3265-.5114-1.0694-.0701-1.9954-.4359-3.036-.7602-2.3355-3.0141-3.8602-5.2404-4.6584-1.8938-.7577-4.0458-.1898-5.9495-.9338-.5128-.2535-.8534-.6802-1.2124-.9807-1.772-1.3266-5.1513-1.2977-6.3563.7704h0Zm-.3851-.2211c1.3462-2.3519,5.0731-2.4123,7.0602-.9211.4051.3432.7161.7197,1.1194.9078,1.8598.6572,4.0057.1176,5.8972.8725,2.4212.8561,4.7916,2.4692,5.6258,5.0069.346.8636.03,2.1046.3874,2.8806.1807.3072.5718.3807,1.017.2633.9662-.3025,1.9895-.5633,3.0171-.5502,1.0559.0059,2.0908.218,3.0588.6669.8561.4582,1.8749.6552,2.7592,1.3805.4172.3567.7241.7557,1.0791,1.0266,2.2193,1.2008,4.0964,3.2252,5.1166,5.5714.858,1.6707.4832,4.2815.4984,6.0848,0,0-.0342,1.5067-.0342,1.5067.0677,2.5506-1.1255,4.8962-1.1469,7.431-.0881,2-.1421,3.9715.0599,5.9786.1263,1.9904.2983,3.9984,1.3171,5.6687.9896,1.7568,2.4749,3.0874,3.6681,4.7397,1.213,1.6732,1.307,4.6209-.5853,5.8384-.4928.2726-1.0162.3766-1.502.4878-1,.1885-1.8079.7922-2.8268,1.0227-1.0513.186-1.9814-.0023-3.0221.2038-4.4706.6436-9.1591,1.0086-13.5034-.5-1.8262-.9159-3.4009-2.108-5.3984-2.587-1.9391-.6238-3.8762-.8323-5.9117-.7776-3.4463-.2924-7.0877-.0511-10.2964,1.2993-1.3287.7306-3.127.0146-4.3399.8718-.5926.4031-1.0316,1.2074-1.8152,1.413-.5665.1133-1.0619-.1499-1.5526-.3391-.7143-.2491-1.4911-.536-2.016-1.1354-2.1166-2.5596.1886-6-.1219-8.8772-.2201-1.9317-1.2406-3.8496-1.522-5.7697-.2414-.9038-.8125-1.8195-.9289-2.8964-.2446-2.0997.3451-4.1767,1.4138-5.9543.5124-.9244,1.4342-1.5206,2.3024-2.0668.8108-.5646,1.5775-1.1968,2.3108-1.8673,2.7643-2.7041,5.8104-5.7155,6.8049-9.5477.4943-2.4269-.0341-4.9526-.3613-7.3741-.2527-.9496-.2438-2.0672-.119-3.0465.0547-.4752-.0141-1.1716-.0119-1.421-.1256-.3594-.1559-.777-.0276-1.149.1171-.375.3481-.6852.5942-.9613,0,0-.0381.0492-.0381.0492l1.9742-3.4302h0Z" style="fill:#663715;"/><path d="m129.628,15.3246c-1.1071.1481-2.2855.8859-3.0624,1.7087-.0748.0956-.1592.207-.1691.3129.2366,1.0692.2198,2.1786.0989,3.2317-.1958,2.4438.25,4.9071.603,7.3193.2237,1.2088.4355,2.5637-.0075,3.7796-.8121,1.9328-1.8961,3.7221-3.1459,5.3985-.6233.8284-1.5307,1.519-2.5018,1.9402-.8806.5014-1.2396,1.5118-1.9358,2.2482,0,0-.8432.8946-.8432.8946-3.882,3.6633-1.9004,9.2829-2.1309,13.9262-.0123,1.6401,1.7742,2.664,3.2601,2.466.7487-.1422,1.4221-.6587,2.1582-1.0494.7716-.4427,1.6612-.4144,2.4467-.5475,2.4383-.4639,4.9615-.0887,7.4146.0867,0,0,2.4602.2119,2.4602.2119,2.4846.0715,4.901.9457,7.0993,2.0761,3.1574,1.9172,6.407,3.6852,10.1163,4.1799.8069.0788,1.6458-.0845,2.4747.0369,1.1451.1591,2.4366.5542,3.4941.0708.8933-.4194,1.7817-1.6339,1.1623-2.6169-1.3218-2.5948-2.2537-5.3025-3.3614-8.011-1.2335-3.1444-.9752-6.6034-.632-9.9055.625-5.1394,3.501-12.2759-2.0337-15.6272-1.0415-.5448-1.9136-1.5494-3.0666-1.7752-.7483-.0307-1.6993-.0397-2.4498-.1691-1.2266-.1102-2.5677-.2141-3.6842-.8082-1.5143-.7921-2.6617-2.1139-3.5181-3.5605-.3815-.7405-.8553-1.3389-1.5042-1.8336-1.2554-1.0138-2.8507-1.5491-4.2145-2.5316-1.3206-.981-2.8849-1.4846-4.5273-1.4525h0Zm-.002-.2925c1.6766-.0589,3.3742.4672,4.7239,1.4552,1.3209.9364,2.9314,1.454,4.2693,2.5026.6772.4917,1.2509,1.2097,1.6265,1.9317.8261,1.3614,1.9368,2.6218,3.3682,3.3426,1.0239.5339,2.3615.6155,3.5142.7074.8852.1371,1.5716.0972,2.4719.1378,1.3049.2057,2.2121,1.2461,3.3378,1.8236,5.8885,3.4112,3.0655,10.9032,2.3396,16.2303-.3339,3.2009-.6149,6.5385.5801,9.6141,1.098,2.8666,2.2826,5.7835,3.5655,8.5826.1345,1.1659-.6939,2.2984-1.7337,2.7744-1.2849.5463-2.5451.1121-3.7972-.0758-2.9563.0725-5.7228-.6949-8.3836-1.9835-3.5798-1.9599-7.0008-4.5402-11.2545-4.601-3.2204-.2375-6.6118-.8191-9.8108-.2268-.8218.1468-1.6557.1361-2.3347.5463-.706.3794-1.3662.9285-2.2522,1.1183-1.7274.2688-3.7417-.9433-3.7575-2.7973.1136-5.8573-2.1321-10.6941,2.9609-15.2673.6936-.7503,1.1318-1.8442,2.1015-2.3558.9248-.4012,1.7068-.9693,2.3372-1.7846.5142-.6186.9499-1.2915,1.3663-2.0002.796-1.3764,1.8744-2.7273,2.0009-4.3366-.0151-2.4255-.6707-4.8835-.7366-7.3294-.1753-1.9027.3759-3.8406-.0476-5.7047.1231-.6182.7571-.9804,1.2098-1.3304.7062-.4484,1.4311-.8897,2.3348-.9736h0Z" style="fill:#663715;"/><path d="m132.6012,21.7739c-.9127,1.228-1.168,2.8047-1.3635,4.2803.0004.2327.189.5171.3009.807,2.0395,4.4022.32,8.8622-3.2226,11.8563-1.3791,1.2512-2.8162,2.3299-3.2759,4.1839-.1645.6005-.4814,1.2183-.7483,1.741-.5086,1.0727-.6963,2.3471-1.0632,3.483-.1373.5793-.2614,1.2307-.487,1.8138-.2095.5621-.3086,1.136-.0126,1.57.7471,1.0251,2.1115.5084,3.0094-.1386,2.1396-1.4289,4.8299-1.5691,7.2554-1.3306,1.2244.0012,2.5328.0765,3.6578.6577,1.1384.5326,2.1289,1.2954,3.1777,1.9342,1.0442.6405,2.1897,1.1396,3.2132,1.8814.9974.7616,1.82,1.7325,2.9988,2.0097.5826.1727,1.1541.1559,1.835.2888,1.232.5153,1.8996,1.5358,3.1568,1.933,2.5353.9313,2.6886-.7312,1.6657-2.625-.8026-1.7043-1.737-3.3903-1.9887-5.2889-.1121-1.2575.3319-2.4969.3882-3.7401.0579-1.5149-.1981-3.0829-.1508-4.6229.1597-.9516.2598-1.77.3697-2.8011.0468-.3095.1966-.5912.2472-.8925.1708-.9107-.2063-1.686-.2761-2.6627-.0781-.6255.1577-1.2623.1767-1.88.1233-1.2762-.6079-2.0513-1.6482-2.6855-1.0195-.6649-2.0719-1.3015-3.2329-1.3214-.6294-.0127-1.2597-.079-1.8739-.1514l-.9188-.1057c-1.6093-.1509-3.0855-1.0605-4.1616-2.2167-1.3496-1.3514-1.4216-3.4596-2.5171-4.9578-.6833-1.0094-1.7811-1.6301-2.993-1.6485-.5843-.0227-1.1901.1569-1.5183.6293h0Zm-.2261-.1583c1.3194-1.6188,4.0619-.5252,5.0348.9597,1.1475,1.492,1.208,3.5248,2.5526,4.8675,1.0332,1.0671,2.3913,1.8725,3.8804,1.9887,0,0,.9265.0891.9265.0891.6152.0608,1.2179.1128,1.8261.1138,1.3611.0037,2.54.7098,3.5797,1.3581.5314.3545,1.0685.6865,1.5068,1.2828.4108.6168.4926,1.3281.4712,1.9835-.0055.6218-.2405,1.1831-.1744,1.8026.0673.8593.476,1.8964.2711,2.8425-.0484.3087-.192.5929-.2455.8938-.0882.8168-.1881,1.8268-.3534,2.7087-.0382,1.5526.2008,3.0704.1238,4.6434-.058,1.2039-.5051,2.4534-.4167,3.6192.2233,1.78,1.1517,3.4678,1.8832,5.0942,2.0194,4.0072-1.3007,4.5864-4.0515,2.3755-.4891-.3973-.9201-.8571-1.4337-1.0277-1.1522-.1482-2.5841-.3725-3.4944-1.2481-1.3462-1.3355-2.905-2.201-4.5572-3.1288-1.0569-.6551-2.037-1.4189-3.1426-1.9447-1.1199-.594-2.336-.602-3.5787-.5926-2.4222-.1664-4.9957-.0306-7.0324,1.407-.9834.766-2.6995,1.3418-3.6119.0697-.7518-1.217.2525-2.4966.3494-3.7737.376-1.2171.5326-2.4392,1.0718-3.6123.2869-.5817.5395-1.0703.7008-1.6682.4151-1.8916,2.1134-3.2488,3.4634-4.4297,3.4424-2.8661,5.1921-7.0056,3.3149-11.3012-.0984-.2856-.2978-.5311-.3194-.928.0096-.3535.093-.6413.1468-.948.2058-1.2205.5389-2.494,1.3086-3.4966h0Z" style="fill:#663715;"/><path d="m137.3334,31.0506c-.5311,1.195-1.2278,2.3048-1.1898,3.6468.1003,1.4275-.5623,2.72-1.6948,3.5578-.9668.8229-2.1637,1.5028-2.7999,2.5897-.7707,1.6091-1.1779,3.8132,1.1593,4.097.9079.129,2.0754-.3623,3.0577.0569,1.1818.703,2.3415.9306,3.6839,1.3371,1.6696.6322,2.5483,2.196,3.8397,3.2916.8287.961,1.5935,2.1536,2.8492,2.5375.5358.1502,1.1325-.18.9868-.7748-.4532-1.2862-.3928-2.6121-.3783-3.9219-.0119-1.2298-.877-2.304-1.1499-3.7119-.4695-2.5159,2.4277-5.0888.4772-7.37-.3984-.5849-.7024-.7556-1.4182-.8243-1.6397-.1795-3.6381-.8528-4.1514-2.634-.095-.3212-.1637-.6483-.2694-.9286-.1776-.5711-.7854-.8279-1.3933-1.0206-.4726-.1379-1.3124-.3883-1.6089.0717h0Zm-.309-.138c.5604-.9509,2.2161-.273,2.9776.1092.9767.514.7947,1.8151,1.4622,2.557.8207.9829,2.1415,1.243,3.3745,1.3695.2871.0488.7062.0537,1.0668.267.6615.4505,1.0242.9795,1.3616,1.6784,1.0608,2.3037-1.2656,4.5881-.9342,6.7498.1936,1.185,1.0979,2.3296,1.1375,3.7909-.0084,1.4405-.1063,2.4862.2527,3.8903.1702.8655-.813,1.5124-1.5827,1.212-1.3354-.4457-2.1195-1.6081-3.0976-2.4767-1.0909-.6595-2.0459-1.6753-3.1043-2.3424-1.0771-.7359-2.4222-.6992-3.6239-1.3365-.2984-.1553-.5353-.3486-.8187-.471-.881-.3483-1.7767.086-2.8015-.1289-1.124-.1379-2.2059-1.0297-2.3463-2.1998-.05-1.7466.7833-3.5512,2.2174-4.5214,1.586-1.1946,3.3467-2.1164,3.1799-4.3928-.028-1.3399.7273-2.5857,1.279-3.7545h0Z" style="fill:#663715;"/><path d="m122.3587,5.1395c-.7556.5556-1.8156.6302-2.4133,1.3963-.4815.7877-.6813,1.7766-1.3241,2.4812-.3806.4971-.692,1.0472-.8106,1.6651-.4049,2.4676-.8787,4.935-1.3559,7.4047-.8657,4.1951-.4224,9.1262-3.5996,12.477-1.0836,1.4666-2.3198,3.0754-3.6608,4.311-.9208.8609-1.8986,1.6505-2.8048,2.51-1.8559,1.6717-3.1557,3.9031-3.7564,6.3144-.3205,1.196-.3112,2.464-.5781,3.7102-.2291,1.219-.4343,2.4746-.2704,3.6893.4747,2.4272,1.5809,4.7945,1.7024,7.3227.2576,3.72-.2034,7.6096,1.4164,11.0879.7363,1.7506,1.8603,3.2441,3.342,4.4269.4541.4351.8684.9239,1.4479,1.111.5771.1897,1.2123.141,1.84.1483,1.8509.1212,3.7686.62,5.5653-.0662,1.1332-.5247,2.3322-.9489,3.5704-1.1722,1.1995-.334,2.3331-.9252,3.5809-1.1626,1.8201-.4416,3.6163-1.0985,5.5223-1.1566.3133-.0156.6556.0123.9424.1792.2849.1609.5056.3886.7801.5198.5524.2665,1.2028.233,1.8229.3783,1.2042.4144,2.2462,1.079,3.5414,1.218,1.2364.3962,2.4782.1908,3.7278.4554,1.8347.4215,3.638.9825,5.4709,1.3992,1.2191.2886,2.4589.4563,3.7017.6514,1.2428.2423,2.4434.46,3.7063.2392.5203-.0814,1.3553-.1182,1.8628-.2055,1.226-.2385,2.3306-.9835,3.6059-1.0816.6321-.0572,1.2476-.0836,1.785-.3801.5392-.2735,1.0752-.6675,1.7005-.8378,1.1978-.3834,2.1018-1.2847,3.0849-2.0423.9907-.7366,1.5473-2.0106,2.6045-2.6908.4543-.3855.7539-.9345,1.066-1.4776,1.4429-2.0394,2.4605-4.379,2.2916-6.9272-.0487-1.2427-.1673-2.5106-.1873-3.7583-.0124-1.2527-.1391-2.4675-.8324-3.5365-.9937-1.5358-2.369-3.0847-2.5133-5.0426-.4351-2.4471-.6338-5.0377-.7119-7.5121-.0347-3.1115.0459-6.3113.127-9.4096-.0203-1.8752-.2265-3.7686-.136-5.6543.1937-1.8736.0288-3.7508-1.2454-5.2302-.622-1.0843-1.8271-1.7274-2.3772-2.8852-.3455-.5936-.9008-.6739-1.4777-.9804-1.072-.7213-2.2684-.9529-3.4572-1.413-.5879-.2366-1.0686-.6433-1.6831-.7981-1.2162-.3646-2.4667-.1996-3.7224-.3759-.6555-.1119-1.193-.4934-1.7793-.6171-.6078-.1025-1.2768-.1942-1.8316-.5013-.5772-.2847-1.0836-.7013-1.5013-1.1818-.3797-.4802-1.008-.6516-1.5219-1.0624-.8753-.9318-1.7304-1.8242-2.7638-2.5335-1.046-.6625-2.3345-1.003-3.2502-1.8772-.4728-.3997-1.1712-.3116-1.7511-.5817-1.8026-.6067-3.739-.3428-5.5638-.8575-2.3847-.8807-4.8546-1.1728-7.3921-1.0304-1.2681-.091-2.5189.1287-3.5364.943h0Zm-.0198-.0279c1.0138-.8138,2.2886-1.0659,3.5555-.9725,1.2536-.0199,2.5134-.0553,3.7661.0789,1.265.1048,2.4468.5938,3.6523.9125,1.2057.3486,2.4744.3052,3.7236.4571.9489.057,1.8346.4171,2.7563.6054.3092.0482.6379.1582.893.3582.9184.8903,2.1754,1.1679,3.2566,1.8558,1.047.708,1.9504,1.635,2.7924,2.5235.4626.3736,1.127.5535,1.5545,1.0751.4083.4628.8933.8547,1.4455,1.1226.5648.3077,1.157.3604,1.7851.4708.6474.1387,1.1786.5112,1.7744.6023,1.2245.1629,2.5309-.0099,3.7527.3556.6197.1509,1.1409.5624,1.7172.7957,1.156.4318,2.459.7063,3.4998,1.4039.5657.2863,1.2309.4304,1.5901,1.0644.4695.8519,1.1245,1.4453,1.8308,2.0999.5947.7841,1.1544,1.4954,1.5538,2.4282.4084,1.2199.4312,2.538.3114,3.7897-.0909,1.8804.1137,3.7458.1324,5.6346-.0832,3.1238-.1639,6.285-.1335,9.4127.0782,2.4593.2744,5.0246.7021,7.4612.157,1.9533,1.4393,3.3204,2.4694,4.9319,1.0816,1.6493.811,3.6986.9485,5.5645.1613,1.8769.2448,3.842-.4382,5.6418-.3665,1.2165-1.1379,2.2839-1.7965,3.3271-.3135.5361-.6262,1.1169-1.1384,1.5496-1.0857.7066-1.5865,1.9175-2.6267,2.6846-.9936.7593-1.9384,1.6836-3.1702,2.0663-.5987.159-1.0942.5248-1.6716.8159-1.1819.5547-2.4843.2616-3.6534.8662-.8582.3611-1.8056.6709-2.7512.6867-.9244.0654-1.9026.2682-2.8323.1664-1.8666-.3371-3.7182-.5728-5.5714-.9911-2.4483-.4718-4.8075-1.6098-7.3217-1.5752-1.2638-.113-2.4922-.3962-3.6935-.8002-.5908-.2382-1.1141-.602-1.716-.7428-.596-.1449-1.2526-.1082-1.8471-.3941-.5462-.3243-.9749-.794-1.6641-.6929-1.9045.049-3.6705.6977-5.5033,1.1542-1.8461.4832-3.4453,1.2223-5.3873,1.6403-1.7505.8239-3.5334,1.3524-5.4916,1.0129-1.2675-.2737-2.4989-.051-3.7585-.34-.6407-.207-1.0761-.7265-1.5207-1.1452-.4527-.4253-.9524-.8122-1.3916-1.2756-1.6723-1.9081-2.6958-4.3401-3.0721-6.8339-.4221-2.4864-.2092-5.0277-.4231-7.5185-.1352-2.5546-1.241-4.8194-1.7314-7.3064-.1759-1.2844.0326-2.5513.2581-3.7887.2573-1.2108.2637-2.4854.5979-3.7224.6253-2.4571,1.9767-4.7375,3.8693-6.421,1.8687-1.6822,3.8398-3.2257,5.3353-5.2691,0,0,1.1507-1.4907,1.1507-1.4907,3.1844-3.3294,2.7367-8.177,3.6347-12.3856.4906-2.4642.9747-4.9217,1.3957-7.3972.1223-.6237.4471-1.1918.8309-1.686.6504-.7091.8414-1.6727,1.3368-2.4721.6039-.7718,1.6783-.8451,2.4323-1.3951h0Z" style="fill:#663715;"/><path d="m153.1593,62.0765c-1.3233,0-2.6724-.5181-4.0486-1.1016-.8898-.3773-1.6959-.8418-2.5492-1.3337l-.3385-.1949c-.25-.1433-.48-.3193-.7023-.4896-.2486-.1902-.5054-.3868-.787-.5341-.2197-.115-.4595-.2088-.6915-.2996-.1941-.0758-.3946-.1542-.5843-.2452-1.1198-.5375-2.1865-.8944-3.3156-1.2723-.1498-.0502-.2985-.1006-.4465-.1506-.5515-.1868-1.0725-.3633-1.626-.5215-.3349-.0957-.6993-.1343-1.0519-.1717-.4912-.0521-.999-.106-1.4437-.314-.2782-.1303-.5262-.286-.7662-.4364-.4543-.2851-.8834-.5544-1.4673-.6276-.7009-.0879-1.4563-.1278-2.4318-.1231-.1889.0005-.3774.0003-.5655-.0001-1.024-.0003-2.0851-.0032-3.1283.1353-1.3347.1771-2.3948.2089-3.4376.1032-.1236-.0125-.2474-.02-.3706-.0274-.377-.0229-.7668-.0466-1.13-.2195-.284-.1353-.5587-.3365-.8241-.5311-.1128-.0827-.2242-.1644-.3341-.2393-2.681-1.8277-1.1737-5.4742-.3638-7.4333.135-.3262.2604-.6586.3816-.98.3069-.8137.6242-1.6551,1.1122-2.4287.1568-.2488.2893-.5159.4173-.7743.1312-.2649.2668-.5389.4291-.7932.1639-.2569.3776-.4696.5843-.6754.1661-.1656.3379-.3366.4806-.5281.5362-.7202,1.2285-1.3676,1.8982-1.9937.2584-.2417.5256-.4916.7762-.739.8185-.8078,1.3998-1.742,1.8295-2.9401.758-2.1138.7983-4.2464.1266-6.7115-.0721-.2649-.1544-.5406-.234-.8071-.2748-.9203-.5591-1.8719-.5707-2.8039-.0086-.6855.0162-1.2142.0805-1.7143.0166-.129.0212-.2677.0262-.4146.007-.2024.0142-.4117.0551-.5948.1919-.8568,1.8854-2.3122,2.9707-2.5529h0c1.0396-.2306,1.8668-.0967,2.5967.0215.1775.0287.3453.0559.5086.0765.4141.0523.6292.2353.8572.4291.127.108.2584.2196.4335.3173.1923.1072.4092.1757.6392.2481.1803.0569.367.1157.5391.1949.6162.2836,1.273.7657,1.8489,1.3574.4243.4357.529.9431.6304,1.4338.0679.3282.138.6675.3027.9887.2945.5748.6645,1.2267,1.1753,1.7035.0713.0665.1412.1355.2111.2046.242.2388.4922.4858.8037.6217.0757.033.1456.0613.2115.0879.2442.0988.4371.1768.6747.3901,1.0889.977,2.5382.8618,3.9404.7503.9609-.0764,1.9553-.1554,2.8363.1122.7578.2302,1.4453.682,2.1101,1.119.1955.1286.3978.2615.5955.3843.7045.4374,1.1833,1.1274,1.5072,2.1715.7159,2.3091.5034,4.8448.2003,7.4568-.0887.7644-.2386,1.5203-.3836,2.2513-.224,1.1285-.4555,2.2953-.4557,3.4869-.0004,1.2541.0473,2.5174.0935,3.7391l.0188.5032c.0431,1.1639.2658,2.1496.5016,3.1931.2875,1.2726.7748,2.4226,1.1674,3.2823.526,1.1532.8045,2.0458.8762,2.8091.2328,2.4835-.3079,3.8561-1.6067,4.0795-.263.0453-.5274.0661-.7927.0661Zm-22.152-7.9186c.9377,0,1.6646.0386,2.3461.124.6064.0761,1.0449.3512,1.509.6424.2374.1488.4826.3028.7554.4304.4289.2008.9281.2538,1.4108.305.3568.0378.7259.0769,1.0691.1751.5561.159,1.0781.3357,1.6308.5229.148.0501.2965.1004.4461.1504,1.1324.379,2.2019.737,3.3277,1.2771.1861.0893.3848.1671.5771.2423.2346.0916.4772.1865.7019.3041.2893.1514.5497.3509.8017.5437.2197.1682.4469.3421.6909.4821l.3389.195c.8505.4903,1.6538.9533,2.538,1.3282,1.6374.6942,3.2349,1.2951,4.784,1.0287,1.2368-.2127,1.7488-1.548,1.5218-3.9688-.0925-.9874-.5395-2.0573-.8674-2.7761-.3946-.8642-.8846-2.0205-1.1743-3.3023-.2368-1.0484-.4605-2.0385-.504-3.212l-.0188-.5031c-.0461-1.2227-.0939-2.487-.0935-3.743.0002-1.2016.2328-2.3736.4575-3.5068.1446-.7291.2943-1.4828.3826-2.2431.3017-2.6006.5136-5.1247-.1967-7.4145-.3159-1.0193-.7808-1.6913-1.4631-2.1148-.1989-.1235-.4016-.2568-.5977-.3857-.6588-.433-1.3399-.8808-2.0835-1.1065-.8628-.2619-1.8465-.1838-2.7986-.1081-1.4235.1132-2.8954.2304-4.0169-.7762-.2242-.2013-.4096-.2763-.6446-.3714-.0667-.0269-.1374-.0556-.2139-.089-.3291-.1434-.5863-.3972-.8349-.6426-.0691-.0684-.1384-.1368-.2091-.2027-.5222-.4876-.8978-1.1489-1.1965-1.7316-.1709-.3335-.2426-.6798-.3117-1.0147-.103-.4982-.2001-.9687-.6034-1.383-.5677-.5829-1.2133-1.0573-1.8185-1.3358-.1663-.0765-.3498-.1343-.527-.1902-.2248-.0708-.4569-.144-.6584-.2564-.1839-.1026-.3191-.2175-.4499-.3287-.2252-.1916-.4199-.357-.8035-.4054-.1651-.0208-.3337-.0482-.5122-.077-.7203-.1168-1.5372-.2491-2.5582-.0226h0c-1.0348.2296-2.7109,1.6638-2.8926,2.4752-.0389.1738-.0459.3782-.0527.5759-.0048.1427-.0098.2903-.027.4241-.0637.4952-.0881,1.0195-.0797,1.7001.0114.9177.2937,1.8623.5663,2.7758.0799.2671.1623.5434.2348.8094.6775,2.4864.6364,4.6386-.129,6.7732-.4351,1.2131-1.0242,2.1595-1.8539,2.9784-.2518.2485-.5194.4988-.7784.741-.6663.623-1.3551,1.2672-1.886,1.98-.147.1975-.3215.3714-.4904.5395-.2027.2018-.4123.4105-.5701.6578-.1593.2497-.2937.5211-.4237.7836-.1292.2607-.2626.5302-.4223.7834-.4826.7649-.784,1.5641-1.1031,2.4102-.1216.3222-.2472.6554-.3826.9832-.7989,1.9321-2.2856,5.5284.3265,7.3093.111.0755.2234.1578.3371.2413.2616.1918.5322.3901.8075.5213.3451.1644.7079.1864,1.0921.2097.1246.0075.2496.0151.3748.0278,1.0342.1051,2.0873.0732,3.4136-.103,1.0503-.1393,2.1121-.1371,3.1422-.1361.1875.0004.376.0006.5649.0001.0333-.0001.0663-.0001.099-.0001Z" style="fill:#663715;"/><path d="m143.3107,46.3024c-.359,0-.8003-.3364-1.0991-.5643l-.0891-.0676c-.1889-.1414-.3696-.3044-.5445-.4619-.2464-.2221-.5012-.4517-.7814-.6235-.3784-.232-.7782-.3337-1.2015-.4416-.1268-.0324-.2546-.0649-.3828-.1014-.142-.0404-.3055-.0812-.4816-.1252-1.0525-.2631-2.4937-.6236-2.6572-1.6356-.1106-.6848.0429-1.6158.3818-2.3167.1803-.3733.3588-.667.5617-.9242l.0571-.0724c.7219-.9156,1.4038-1.7805,2.1049-2.7827.1741-.2489.3958-.3961.6588-.4378.3229-.0511.7007.0658,1.0378.3201.1486.1122.3566.2257.5767.3457.5338.2914,1.139.6217,1.241,1.1083.0671.3212-.0939.7678-.2362,1.1618-.0621.1718-.1206.334-.1526.4663-.1847.7582-.1959,1.3676-.0365,1.9758.1516.5789.516,1.1139.8684,1.6312.4852.7124.9868,1.449.9421,2.3134-.0204.3945-.2438,1.1593-.6897,1.2264-.0254.0039-.0517.0057-.0781.0057Zm-4.0897-10.0876l.0421.0294c-.7029,1.0046-1.3856,1.8706-2.1085,2.7874l-.0571.0724c-.1981.2512-.3728.5389-.5501.9053-.3303.6835-.4802,1.5899-.3726,2.2556.1524.9454,1.5561,1.2962,2.5807,1.5526.1773.0443.3417.0854.4848.1261.1272.0362.2542.0684.3802.1006.4309.1098.8381.2134,1.2297.4534.2883.1768.5467.4096.7965.6348.1731.156.352.3174.537.456l.0899.0681c.2889.22.7702.5874,1.0999.5389.365-.055.5829-.7543.6024-1.1304.0431-.8298-.4269-1.5198-.9245-2.2504-.3572-.5245-.7265-1.0669-.8828-1.6628-.1639-.6256-.1526-1.2505.0361-2.0261.0335-.1376.0929-.3024.1558-.4769.1376-.3813.2935-.8134.2322-1.106-.0919-.4403-.6751-.7585-1.1895-1.0392-.2236-.122-.4347-.2373-.5893-.3539-.3155-.2379-.6659-.348-.9601-.3007-.2346.0371-.4333.1701-.5907.3952l-.0421-.0294Z" style="fill:#663715;"/></g></g></svg>